<svg viewBox="0 0 32 32">
    <style>
        .a { fill: rgba(27, 79, 157, .45); }
        .s { opacity: .15; }
        
        @media (prefers-color-scheme: dark) {
            .a { fill: rgba(163, 184, 215, .15); }
            .s { opacity: .35; }
        }
    </style>

    <defs>
        <linearGradient id="a" x1="3.96204" y1="21.39202" x2="7.15969" y2="23.64732" gradientUnits="userSpaceOnUse">
            <stop offset="0" stop-opacity="0"></stop>
            <stop offset="1"></stop>
        </linearGradient>
        <linearGradient id="b" x1="16.26084" y1="28.97941" x2="20.73966" y2="25.95117" xlink:href="#a"></linearGradient>
    </defs>

    <path 
        class="a"
        d="M16,0A16,16,0,1,0,32,16,16,16,0,0,0,16,0ZM10.6283,26.71527,16,18.92621l5.3717,7.78906a11.87241,11.87241,0,0,1-10.7434,0Zm14.31707-2.74444L16,11,7.05463,23.97083a12,12,0,1,1,17.89074,0Z">
    </path>

    <path 
        class="s"
        d="M0,16A15.94793,15.94793,0,0,0,4.72491,27.34888l2.32972-3.37805A11.93746,11.93746,0,0,1,4,16Z"
        fill="url(#a)"></path>
    
    <path
        class="s"
        d="M16,28a11.90913,11.90913,0,0,1-5.37177-1.28473l-2.29571,3.3288a16.00669,16.00669,0,0,0,15.335,0l-2.29571-3.3288A11.90913,11.90913,0,0,1,16,28Z"
        fill="url(#b)"></path>
</svg>
