<svg xmlns="http://www.w3.org/2000/svg" viewBox="0 0 506 78">
    <style>
        .a { fill: #000000; }

        @media (prefers-color-scheme: dark) {
            .a { fill: #FFFFFF; }
        }
    </style>

    <path
        class="a"
        d="M228,58H210V10h18ZM354,10H338V58h16Zm26,38V10H362V58h42V48Zm52,0V10H414V58h42V48ZM330,30V10H312V30h-8V10H286V58h18V40h8V58h18V38H320V30ZM152,20V58H136V48H126V58H110V20h8V10h26V20ZM136,38V30H126v8ZM76,20V58H68V68H60V78H16V68H8V58H0V20H8V10h8V0H60V10h8V20ZM50,68V48H42V40H34v8H26V68ZM66,58V20H58V10H18V20H10V58h6V48h8V38h9V30H43v8h9V48h8V58ZM202,10H186V20H176V10H160V30h8V40h8V58h10V40h8V30h8Zm76,10V10H244V20h-8V40h18v8H236V58h34V48h8V30H262V20Zm228,0V10H472V20h-8V40h18v8H464V58h34V48h8V30H490V20ZM399.70762,73.41146a3.53984,3.53984,0,0,0,1.23249-1.42493,4.97242,4.97242,0,0,0,.47246-2.25524,4.47493,4.47493,0,0,0-.82923-2.82932A2.728,2.728,0,0,0,398.313,65.8403a2.89293,2.89293,0,0,0-1.1168.23244A4.20289,4.20289,0,0,0,396,66.72358h-.04649L396,65.51488V62h-2V74h1.73987l.186-.90423.06162-.21839a2.8756,2.8756,0,0,0,2.09307,1.02275A2.9493,2.9493,0,0,0,399.70762,73.41146Zm-2.7904-1.48763a1.9785,1.9785,0,0,1-.68111-.39462V68.41339a2.0171,2.0171,0,0,1,1.42493-.71246q1.41088,0,1.41088,2.07685a2.75327,2.75327,0,0,1-.43354,1.72008,1.32232,1.32232,0,0,1-1.07032.54273A2.11179,2.11179,0,0,1,396.91722,71.92383ZM408.83563,66l-1.13086,3.328c-.11462.38275-.23248.76758-.35681,1.15466-.12433.387-.23785.773-.34051,1.15467h-.06275q-.18649-.60489-.37189-1.186-.18648-.58053-.40325-1.12329L404.883,66h-2.26282l3.33313,7.51307-.1557.40216a7.95887,7.95887,0,0,1-.82819,1.80213A1.49464,1.49464,0,0,1,404,76h-2v2h2a3.55456,3.55456,0,0,0,1.60968-.32494,2.99646,2.99646,0,0,0,1.12439-.98383,24.35989,24.35989,0,0,0,1.21826-2.89923L410.9903,66Zm28,0-1.82818,5.63733h-.06275L432.883,66h-2.26282l3.33313,7.51306-.1557.40216a7.95887,7.95887,0,0,1-.82819,1.80213A1.49465,1.49465,0,0,1,432,76h-2v2h2a3.55455,3.55455,0,0,0,1.60968-.325,2.99646,2.99646,0,0,0,1.12439-.98383,24.35989,24.35989,0,0,0,1.21826-2.89923L438.9903,66Zm-10.18306,7.58985a6.30268,6.30268,0,0,0,1.27789-.74382h.06271L428.16291,74h1.86062V69.31289a3.38784,3.38784,0,0,0-.92977-2.61958,3.6202,3.6202,0,0,0-2.54282-.853,6.09663,6.09663,0,0,0-1.89847.29515,9.07512,9.07512,0,0,0-1.69629.74382l.80544,1.48763a9.7893,9.7893,0,0,1,1.21627-.51894,3.441,3.441,0,0,1,1.12438-.19352,1.98267,1.98267,0,0,1,1.17735.29407,1.13279,1.13279,0,0,1,.46489.82166,9.2469,9.2469,0,0,0-3.89748.83679,2.15813,2.15813,0,0,0-1.17087,1.96874,2.28055,2.28055,0,0,0,.31029,1.17735,2.23677,2.23677,0,0,0,.87572.8368,2.75065,2.75065,0,0,0,1.3406.31028A3.57245,3.57245,0,0,0,426.65257,73.58985Zm-1.49629-1.63467a.59983.59983,0,0,1-.29407-.5503.85526.85526,0,0,1,.24758-.60435,1.88871,1.88871,0,0,1,.87572-.43461A12.38148,12.38148,0,0,1,428,70.13347v1.27141a6.75131,6.75131,0,0,1-1.10742.51895,2.2516,2.2516,0,0,1-.96113.20973A1.48533,1.48533,0,0,1,425.15628,71.95518ZM444,73.98137V66h-4v2h2v6Zm-.06745-9.535a1.27655,1.27655,0,0,0,.426-1.00005,1.34285,1.34285,0,0,0-.426-1.03031,1.70746,1.70746,0,0,0-2.186,0,1.33913,1.33913,0,0,0-.426,1.03031,1.27306,1.27306,0,0,0,.426,1.00005,1.76387,1.76387,0,0,0,2.186,0Zm8.469,8.92725a1.80781,1.80781,0,0,0,.49624-1.28654,1.83036,1.83036,0,0,0-.49624-1.30277,1.87231,1.87231,0,0,0-2.60336,0,1.83036,1.83036,0,0,0-.49624,1.30277,1.80781,1.80781,0,0,0,.49624,1.28654,1.87231,1.87231,0,0,0,2.60336,0Zm13.24368.83677a2.09657,2.09657,0,0,1-.55786,1.43359,3.68786,3.68786,0,0,1-1.58813.98383,7.43074,7.43074,0,0,1-2.42609.35675,7.24944,7.24944,0,0,1-1.78277-.201,2.73877,2.73877,0,0,1-1.24762-.64331,1.49672,1.49672,0,0,1-.45734-1.12433,1.75376,1.75376,0,0,1,1.1936-1.53412V73.4201a1.89471,1.89471,0,0,1-.55029-.52,1.34994,1.34994,0,0,1-.22382-.79792,1.39565,1.39565,0,0,1,.25513-.77514,2.45575,2.45575,0,0,1,.65845-.666v-.06274a2.35293,2.35293,0,0,1-1.00653-1.96765,2.54108,2.54108,0,0,1,.45624-1.55036,2.78864,2.78864,0,0,1,1.20977-.92975,4.204,4.204,0,0,1,1.61951-.3103,4.03214,4.03214,0,0,1,1.27032.186l1.5655,1.67468a2.02274,2.02274,0,0,1,.23242.4411,1.51177,1.51177,0,0,1,.10919.56543,2.34357,2.34357,0,0,1-.427,1.44977,2.55656,2.55656,0,0,1-1.13843.84436,4.39864,4.39864,0,0,1-1.612.27893,3.39327,3.39327,0,0,1-.49622-.03888,4.80086,4.80086,0,0,1-.55786-.11572,1.08167,1.08167,0,0,0-.25622.24762.57.57,0,0,0-.08435.32537q0,.57414,1.30169.5741h1.426a4.80992,4.80992,0,0,1,2.31683.44867A1.57515,1.57515,0,0,1,465.64526,74.21039Zm-5.59484-5.57971a1.2586,1.2586,0,0,0,.333.94494,1.11979,1.11979,0,0,0,.81409.32538,1.14792,1.14792,0,0,0,.82166-.32538,1.24509,1.24509,0,0,0,.34057-.94494,1.22365,1.22365,0,0,0-.34057-.92975,1.14772,1.14772,0,0,0-.82166-.32544,1.1196,1.1196,0,0,0-.81409.32544A1.23667,1.23667,0,0,0,460.05042,68.63068Zm3.425,5.98193a.45666.45666,0,0,0-.34057-.48,3.53315,3.53315,0,0,0-1.00757-.10809h-.96118a4.6938,4.6938,0,0,1-1.17731-.1092.94143.94143,0,0,0-.54272.76.7056.7056,0,0,0,.52649.65082,3.82474,3.82474,0,0,0,1.426.21735,3.56057,3.56057,0,0,0,1.49628-.27137Q463.47543,74.99963,463.47546,74.61261ZM470,74V69.71507a3.53815,3.53815,0,0,1,1.34177-1.45628,2.676,2.676,0,0,1,1.40223-.4184,3.93014,3.93014,0,0,1,.72111.05406,6.29543,6.29543,0,0,1,.64328.16217l.46488-1.906a3.79448,3.79448,0,0,0-.65841-.23245,3.59814,3.59814,0,0,0-.82922-.07784,3.47592,3.47592,0,0,0-1.72873.45732,3.68726,3.68726,0,0,0-1.31042,1.40331H470L469.73737,66H468l-.12217,8Zm10.66726-.57232a3.74862,3.74862,0,0,0,1.4498-1.37952,4.54515,4.54515,0,0,0,0-4.36345,3.75709,3.75709,0,0,0-1.4498-1.37087,4.10543,4.10543,0,0,0-3.82828,0,3.76177,3.76177,0,0,0-1.44872,1.37087,4.54515,4.54515,0,0,0,0,4.36345,3.75328,3.75328,0,0,0,1.44872,1.37952,4.11381,4.11381,0,0,0,3.82828,0Zm-3.0996-1.96874a3.41067,3.41067,0,0,1,0-3.185,1.48822,1.48822,0,0,1,2.372,0,3.41067,3.41067,0,0,1,0,3.185,1.47688,1.47688,0,0,1-2.372,0Zm9.7495,2.17976a4.08435,4.08435,0,0,0,.99452-.94156h.05379L488.51455,74h1.423V66h-2v5.14355c-.11882.45763-.22593.58027-.42408.70618a1.23407,1.23407,0,0,1-.67654.18831.80119.80119,0,0,1-.7643-.369,2.5358,2.5358,0,0,1-.13508-1.13754V66h-2v4.82933a4.502,4.502,0,0,0,.45175,2.32326A1.79606,1.79606,0,0,0,486.05277,74,2.24428,2.24428,0,0,0,487.31716,73.6387Zm7.02124,2.9275V74.31853l-.10919-1.25519h.0627a2.60984,2.60984,0,0,0,1.8909.83679,2.94932,2.94932,0,0,0,1.6271-.48867,3.55227,3.55227,0,0,0,1.23249-1.41736,4.92346,4.92346,0,0,0,.47246-2.24767,4.53329,4.53329,0,0,0-.82166-2.84446,2.70537,2.70537,0,0,0-2.26281-1.06167,2.9741,2.9741,0,0,0-1.22492.27136,4.1251,4.1251,0,0,0-1.06924.68977h-.04649l-.16974-.77517h-1.86062V76.5662Zm.67354-4.64237a1.99954,1.99954,0,0,1-.67354-.39462V68.41339a2.0171,2.0171,0,0,1,1.42493-.71246q1.41087,0,1.41088,2.07685a2.70838,2.70838,0,0,1-.44219,1.72008,1.34,1.34,0,0,1-1.0768.54273A2.036,2.036,0,0,1,495.01194,71.92383ZM462.84375,68h3V66h-5Z" />
</svg>