<svg id="lui-font-logo" xmlns="http://www.w3.org/2000/svg" viewBox="0 0 524 256">
    <defs>
        <style>
        .blue-fill{
            fill:#1c01ff;
        }
        </style>
    </defs>
    <title>lui-logo</title>
    <path 
        id="lui-logo" 
        class="blue-fill" 
        d="M157.82,244.65a48.83,48.83,0,0,1-4.94,2.56,84,84,0,0,1-10.07,3.84,106.36,106.36,0,0,1-15.2,3.48A127.5,127.5,0,0,1,107.29,256q-31.13,0-45.41-18.5t-14.28-54V37.36H0V0H92.64V186.78q0,17.58,7,23.81t17.58,6.22q13.54,0,22.7-3.66T152,208.39Zm172.47,1.46q-12.45,3.3-30.21,6.59a212.12,212.12,0,0,1-38.63,3.3q-21.24,0-34.79-5.86a50.68,50.68,0,0,1-21.42-16.66A63.77,63.77,0,0,1,194.44,208a164.32,164.32,0,0,1-2.93-32.23v-96h45v90.09q0,23.81,5.68,35.34t22.15,11.54A116.07,116.07,0,0,0,284.89,215V79.84h45.41ZM524,244.65a111.42,111.42,0,0,1-26.18,9A119.19,119.19,0,0,1,475.3,256q-17.57,0-29.48-5.13a45.34,45.34,0,0,1-19-14.83,60.18,60.18,0,0,1-10.07-23.62,155.44,155.44,0,0,1-2.93-31.86V117.2h-47.6V79.84h92.64V186.42q0,15.38,5.68,22.89t18.86,7.51a83.52,83.52,0,0,0,15-1.65,84.47,84.47,0,0,0,19.77-6.78ZM457,30.4q0,13.18-8.42,20.88A28.85,28.85,0,0,1,428.43,59a28.18,28.18,0,0,1-20-7.69q-8.24-7.69-8.24-20.88,0-13.54,8.24-21.24a28.19,28.19,0,0,1,20-7.69,28.85,28.85,0,0,1,20.14,7.69Q457,16.85,457,30.4Z"/>
</svg>