<svg id="Capa_1" data-name="Capa 1" xmlns="http://www.w3.org/2000/svg" viewBox="0 0 200 40"><defs><style>.cls-1{fill:#333;}.cls-2{fill:#ff4785;}</style></defs><title>Mesa de trabajo 6</title><path class="cls-1" d="M56.45,32a8.84,8.84,0,0,1-.2,2h-12a8.78,8.78,0,0,1-.2-2,8.39,8.39,0,0,1,.2-2h4a8.78,8.78,0,0,1-.2-2,8.39,8.39,0,0,1,.2-2,8.78,8.78,0,0,1-.2-2,8.39,8.39,0,0,1,.2-2,8.78,8.78,0,0,1-.2-2,8.39,8.39,0,0,1,.2-2,8.78,8.78,0,0,1-.2-2,8.39,8.39,0,0,1,.2-2,8.78,8.78,0,0,1-.2-2,8.39,8.39,0,0,1,.2-2h-3a8.78,8.78,0,0,1-.2-2,8.39,8.39,0,0,1,.2-2h7a8.44,8.44,0,0,1,.2,2,8.84,8.84,0,0,1-.2,2,8.44,8.44,0,0,1,.2,2,8.84,8.84,0,0,1-.2,2,8.44,8.44,0,0,1,.2,2,8.84,8.84,0,0,1-.2,2,8.44,8.44,0,0,1,.2,2,8.84,8.84,0,0,1-.2,2,8.44,8.44,0,0,1,.2,2,8.84,8.84,0,0,1-.2,2,8.44,8.44,0,0,1,.2,2,8.84,8.84,0,0,1-.2,2h4A8.44,8.44,0,0,1,56.45,32Z"/><path class="cls-2" d="M96.45,32a8.84,8.84,0,0,1-.2,2h-12a8.78,8.78,0,0,1-.2-2,8.39,8.39,0,0,1,.2-2h4a8.78,8.78,0,0,1-.2-2,8.39,8.39,0,0,1,.2-2,8.78,8.78,0,0,1-.2-2,8.39,8.39,0,0,1,.2-2,8.78,8.78,0,0,1-.2-2,8.39,8.39,0,0,1,.2-2,8.78,8.78,0,0,1-.2-2,8.39,8.39,0,0,1,.2-2,8.78,8.78,0,0,1-.2-2,8.39,8.39,0,0,1,.2-2h-3A8.78,8.78,0,0,1,85,8a8.39,8.39,0,0,1,.2-2h7a8.44,8.44,0,0,1,.2,2,8.84,8.84,0,0,1-.2,2,8.44,8.44,0,0,1,.2,2,8.84,8.84,0,0,1-.2,2,8.44,8.44,0,0,1,.2,2,8.84,8.84,0,0,1-.2,2,8.44,8.44,0,0,1,.2,2,8.84,8.84,0,0,1-.2,2,8.44,8.44,0,0,1,.2,2,8.84,8.84,0,0,1-.2,2,8.44,8.44,0,0,1,.2,2,8.84,8.84,0,0,1-.2,2h4A8.44,8.44,0,0,1,96.45,32Zm11.3-2h5a8.44,8.44,0,0,1,.2,2,8.84,8.84,0,0,1-.2,2h-8a8.78,8.78,0,0,1-.2-2,8.39,8.39,0,0,1,.2-2h-2.5a8.78,8.78,0,0,1-.2-2,8.39,8.39,0,0,1,.2-2,8.78,8.78,0,0,1-.2-2,8.39,8.39,0,0,1,.2-2,8.78,8.78,0,0,1-.2-2,8.39,8.39,0,0,1,.2-2,8.78,8.78,0,0,1-.2-2,8.39,8.39,0,0,1,.2-2h4a8.44,8.44,0,0,1,.2,2,8.84,8.84,0,0,1-.2,2,8.44,8.44,0,0,1,.2,2,8.84,8.84,0,0,1-.2,2,8.44,8.44,0,0,1,.2,2,8.84,8.84,0,0,1-.2,2h1.5a8.44,8.44,0,0,1,.2,2A8.84,8.84,0,0,1,107.75,30Zm10.7-10a8.84,8.84,0,0,1-.2,2,8.44,8.44,0,0,1,.2,2,8.84,8.84,0,0,1-.2,2,8.44,8.44,0,0,1,.2,2,8.84,8.84,0,0,1-.2,2,8.44,8.44,0,0,1,.2,2,8.84,8.84,0,0,1-.2,2h-4a8.78,8.78,0,0,1-.2-2,8.39,8.39,0,0,1,.2-2h-1.5a8.78,8.78,0,0,1-.2-2,8.39,8.39,0,0,1,.2-2h1.5a8.78,8.78,0,0,1-.2-2,8.39,8.39,0,0,1,.2-2,8.78,8.78,0,0,1-.2-2,8.39,8.39,0,0,1,.2-2,8.78,8.78,0,0,1-.2-2,8.39,8.39,0,0,1,.2-2h4a8.44,8.44,0,0,1,.2,2,8.84,8.84,0,0,1-.2,2A8.44,8.44,0,0,1,118.45,20Zm18,12a8.84,8.84,0,0,1-.2,2h-12a8.78,8.78,0,0,1-.2-2,8.39,8.39,0,0,1,.2-2h4a8.78,8.78,0,0,1-.2-2,8.39,8.39,0,0,1,.2-2,8.78,8.78,0,0,1-.2-2,8.39,8.39,0,0,1,.2-2,8.78,8.78,0,0,1-.2-2,8.39,8.39,0,0,1,.2-2h-3a8.78,8.78,0,0,1-.2-2,8.39,8.39,0,0,1,.2-2h7a8.44,8.44,0,0,1,.2,2,8.84,8.84,0,0,1-.2,2,8.44,8.44,0,0,1,.2,2,8.84,8.84,0,0,1-.2,2,8.44,8.44,0,0,1,.2,2,8.84,8.84,0,0,1-.2,2,8.44,8.44,0,0,1,.2,2,8.84,8.84,0,0,1-.2,2h4A8.44,8.44,0,0,1,136.45,32Zm-8.2-22a8.78,8.78,0,0,1-.2-2,8.39,8.39,0,0,1,.2-2h4a8.44,8.44,0,0,1,.2,2,8.84,8.84,0,0,1-.2,2Z"/><path class="cls-1" d="M16.45,32a8.84,8.84,0,0,1-.2,2h-12a8.78,8.78,0,0,1-.2-2,8.39,8.39,0,0,1,.2-2h4a8.78,8.78,0,0,1-.2-2,8.39,8.39,0,0,1,.2-2,8.78,8.78,0,0,1-.2-2,8.39,8.39,0,0,1,.2-2,8.78,8.78,0,0,1-.2-2,8.39,8.39,0,0,1,.2-2,8.78,8.78,0,0,1-.2-2,8.39,8.39,0,0,1,.2-2,8.78,8.78,0,0,1-.2-2,8.39,8.39,0,0,1,.2-2h-3a8.78,8.78,0,0,1-.2-2,8.39,8.39,0,0,1,.2-2h7a8.44,8.44,0,0,1,.2,2,8.84,8.84,0,0,1-.2,2,8.44,8.44,0,0,1,.2,2,8.84,8.84,0,0,1-.2,2,8.44,8.44,0,0,1,.2,2,8.84,8.84,0,0,1-.2,2,8.44,8.44,0,0,1,.2,2,8.84,8.84,0,0,1-.2,2,8.44,8.44,0,0,1,.2,2,8.84,8.84,0,0,1-.2,2,8.44,8.44,0,0,1,.2,2,8.84,8.84,0,0,1-.2,2h4A8.44,8.44,0,0,1,16.45,32Zm16.3-2a8.44,8.44,0,0,1,.2,2,8.84,8.84,0,0,1-.2,2h-5a8.78,8.78,0,0,1-.2-2,8.39,8.39,0,0,1,.2-2,8.78,8.78,0,0,1-.2-2,8.39,8.39,0,0,1,.2-2h5a8.44,8.44,0,0,1,.2,2A8.84,8.84,0,0,1,32.75,30ZM72.2,32a8.84,8.84,0,0,1-.2,2H69.5a8.78,8.78,0,0,1-.2-2,8.39,8.39,0,0,1,.2-2H68.25a8.78,8.78,0,0,1-.2-2,8.39,8.39,0,0,1,.2-2h-1.5a8.78,8.78,0,0,1-.2-2,8.39,8.39,0,0,1,.2-2,8.78,8.78,0,0,1-.2-2,8.39,8.39,0,0,1,.2-2,8.78,8.78,0,0,1-.2-2,8.39,8.39,0,0,1,.2-2h1.5a8.78,8.78,0,0,1-.2-2,8.39,8.39,0,0,1,.2-2H69.5a8.78,8.78,0,0,1-.2-2,8.39,8.39,0,0,1,.2-2H72a8.44,8.44,0,0,1,.2,2,8.84,8.84,0,0,1-.2,2H70.75a8.44,8.44,0,0,1,.2,2,8.84,8.84,0,0,1-.2,2,8.44,8.44,0,0,1,.2,2,8.84,8.84,0,0,1-.2,2,8.44,8.44,0,0,1,.2,2,8.84,8.84,0,0,1-.2,2,8.44,8.44,0,0,1,.2,2,8.84,8.84,0,0,1-.2,2,8.44,8.44,0,0,1,.2,2,8.84,8.84,0,0,1-.2,2H72A8.44,8.44,0,0,1,72.2,32ZM74.5,6H72a8.78,8.78,0,0,1-.2-2A8.39,8.39,0,0,1,72,2h2.5a8.44,8.44,0,0,1,.2,2A8.84,8.84,0,0,1,74.5,6Zm0,28a8.44,8.44,0,0,1,.2,2,8.85,8.85,0,0,1-.2,2H72a8.79,8.79,0,0,1-.2-2,8.38,8.38,0,0,1,.2-2ZM148.7,4a8.84,8.84,0,0,1-.2,2H146a8.78,8.78,0,0,1-.2-2,8.39,8.39,0,0,1,.2-2h2.5A8.44,8.44,0,0,1,148.7,4ZM146,34h2.5a8.44,8.44,0,0,1,.2,2,8.85,8.85,0,0,1-.2,2H146a8.79,8.79,0,0,1-.2-2A8.38,8.38,0,0,1,146,34Zm8-14a8.84,8.84,0,0,1-.2,2,8.44,8.44,0,0,1,.2,2,8.84,8.84,0,0,1-.2,2h-1.5a8.44,8.44,0,0,1,.2,2,8.84,8.84,0,0,1-.2,2H151a8.44,8.44,0,0,1,.2,2,8.84,8.84,0,0,1-.2,2h-2.5a8.78,8.78,0,0,1-.2-2,8.39,8.39,0,0,1,.2-2h1.25a8.78,8.78,0,0,1-.2-2,8.39,8.39,0,0,1,.2-2,8.78,8.78,0,0,1-.2-2,8.39,8.39,0,0,1,.2-2,8.78,8.78,0,0,1-.2-2,8.39,8.39,0,0,1,.2-2,8.78,8.78,0,0,1-.2-2,8.39,8.39,0,0,1,.2-2,8.78,8.78,0,0,1-.2-2,8.39,8.39,0,0,1,.2-2H148.5a8.78,8.78,0,0,1-.2-2,8.39,8.39,0,0,1,.2-2H151a8.44,8.44,0,0,1,.2,2,8.84,8.84,0,0,1-.2,2h1.25a8.44,8.44,0,0,1,.2,2,8.84,8.84,0,0,1-.2,2h1.5a8.44,8.44,0,0,1,.2,2,8.84,8.84,0,0,1-.2,2A8.44,8.44,0,0,1,153.95,20Z"/></svg>