<svg id="sa-logo-font-spacegrotesk" xmlns="http://www.w3.org/2000/svg" viewBox="0 0 1956.83 315">
    <defs>
        <style>
            .blue-fill {
                fill: #1c01ff;
            }
        </style>
    </defs>
    <title>sa-logo-font-spacegrotesk</title>
    <path id="singleaction" class="blue-fill"
        d="M80.15,249.9q-31.85,0-53.72-14.7T0,188.65l26.25-6q2.8,16.8,10.5,26.43a41.85,41.85,0,0,0,19.07,13.65,72.37,72.37,0,0,0,24.33,4q19.25,0,30.45-7.7t11.2-20.65q0-13.3-10.67-18.72T81.9,170.8l-14.35-2.45a129.13,129.13,0,0,1-30.1-8.75q-13.65-5.95-21.7-16.1T7.7,117.95q0-23.1,17.85-36t47.25-13q29,0,47.08,13.13T143.15,119l-25.9,6.65Q114.1,107.1,102.2,99.57T72.8,92q-17.51,0-27.65,6.48T35,117.6q0,12.25,9.63,18t25.72,8.57l14.35,2.45a183,183,0,0,1,32.73,8.57q14.52,5.43,23.1,15.57t8.58,26.6q0,25.2-18.72,38.85T80.15,249.9ZM202.65,47.25a21,21,0,0,1-15.22-6,20.08,20.08,0,0,1-6.12-15q0-9.45,6.13-15.4A21,21,0,0,1,202.65,4.9a20.41,20.41,0,0,1,15.05,5.95q5.95,6,5.95,15.4a20.35,20.35,0,0,1-21,21ZM188.65,245V73.85H216.3V245Zm78.75,0V73.85h27V102.9h4.9q5.6-12.25,19.08-22.23T358,70.7q19.24,0,34.47,8.05a60.41,60.41,0,0,1,24.33,23.8q9.1,15.75,9.1,38.85V245H398.3V143.5q0-25.54-12.78-37.1T351,94.85q-24.86,0-40.43,16.1T295,158.9V245Zm199.15-84.7v-4.9q0-26.95,10.85-46.2a76.64,76.64,0,0,1,29.4-29.75,81,81,0,0,1,40.6-10.5q26.95,0,41.47,10.33t21.53,22.92h4.9V73.85h26.25V284.9q0,14-7.7,22T611.44,315H495.24V290.5H604.09q10.5,0,10.5-10.5V214.9h-4.9a62.4,62.4,0,0,1-11.9,15q-7.71,7.35-20,12.08t-30.45,4.72a81,81,0,0,1-40.6-10.5,76.3,76.3,0,0,1-29.4-29.93Q466.54,186.9,466.54,160.3Zm88.2,62q26.6,0,43.22-16.8t16.63-46.2v-2.8q0-29.75-16.62-46.38T554.74,93.45q-26.25,0-43.22,16.63t-17,46.38v2.8q0,29.4,17,46.2T554.74,222.25ZM692.64,245V0h27.65V245Zm157.15,4.9q-25.91,0-45.5-11a77,77,0,0,1-30.45-31Q763,187.95,763,161.7v-4.2q0-26.6,10.85-46.55a77.67,77.67,0,0,1,30.1-31q19.25-11,44.1-11,24.15,0,42.7,10.33a73.16,73.16,0,0,1,29,29.57q10.5,19.25,10.5,45.15v12.6H790.64q1.05,27.65,17.85,43.22t42,15.58q22,0,33.95-10.15a68.21,68.21,0,0,0,18.2-24.15l23.8,11.55a102.19,102.19,0,0,1-14.52,21.7,74.82,74.82,0,0,1-24.15,18.2Q872.88,249.9,849.79,249.9ZM791,143.85h111.3q-1.4-23.8-16.28-37.1t-38-13.3q-23.45,0-38.5,13.3T791,143.85Zm233.1,106.05a81.81,81.81,0,0,1-32.55-6.3,53.11,53.11,0,0,1-23.1-18.2q-8.4-11.89-8.4-29.05,0-17.5,8.4-28.87t23.1-17.15a89.32,89.32,0,0,1,32.9-5.78h57.75v-12.6q0-18.19-10.68-28.7t-31.67-10.5q-20.66,0-32.2,10T991.89,129.5L966,121.1A77.76,77.76,0,0,1,979.29,95q9.1-11.72,24.33-18.9t36.58-7.18q32.89,0,51.1,17t18.2,47.78V211q0,10.5,9.8,10.5H1135V245h-24.15q-11.55,0-18.55-6.47t-7-17.33v-1.75h-4.2a83.31,83.31,0,0,1-10.32,13.83q-6.48,7.18-17.68,11.9T1024.09,249.9Zm3.15-23.8q24.49,0,39.72-14.53t15.23-40.78v-3.85h-56.7q-16.46,0-27.12,7.18t-10.67,21.53q0,14.36,11,22.4T1027.24,226.1Zm212.45,23.8q-24.86,0-44.62-10.68a77.82,77.82,0,0,1-31.15-30.62q-11.38-20-11.37-47.25V157.5q0-27.64,11.38-47.43a78.19,78.19,0,0,1,31.15-30.45q19.77-10.67,44.63-10.68,24.5,0,41.83,9.1a72.42,72.42,0,0,1,27.3,24.15,81.61,81.61,0,0,1,12.78,32.2l-27,5.6a59,59,0,0,0-8.22-23.1,47.3,47.3,0,0,0-18-16.8q-11.55-6.3-28.35-6.3-17.15,0-30.62,7.7a55.54,55.54,0,0,0-21.35,22q-7.87,14.36-7.87,34.3V161q0,19.95,7.88,34.3a55.47,55.47,0,0,0,21.35,22.05q13.47,7.7,30.63,7.7,25.54,0,39-13.3a57.86,57.86,0,0,0,16.63-32.9l27.3,5.95a94.38,94.38,0,0,1-14,31.85,73.78,73.78,0,0,1-27.47,24.15Q1264.19,249.9,1239.69,249.9Zm179.55-4.9q-14.7,0-22.58-8.05t-7.87-22V98h-51.45V73.85h51.45V12.95h27.65v60.9h56V98h-56V210.7q0,10.5,10.15,10.5h38.15V245Zm105-197.75a21,21,0,0,1-15.22-6,20.08,20.08,0,0,1-6.12-15q0-9.45,6.13-15.4a21,21,0,0,1,15.22-5.95,20.41,20.41,0,0,1,15,5.95q5.95,6,6,15.4a20.35,20.35,0,0,1-21,21Zm-14,197.75V73.85h27.65V245Zm157.85,4.9q-25.91,0-45.68-10.85a77,77,0,0,1-30.8-30.62q-11-19.77-11-46.72v-4.55q0-26.6,11-46.55a76.75,76.75,0,0,1,30.8-30.8q19.77-10.84,45.68-10.85t45.67,10.85a76.77,76.77,0,0,1,30.8,30.8q11,20,11,46.55v4.55q0,27-11,46.72a77,77,0,0,1-30.8,30.63Q1694,249.89,1668.09,249.9Zm0-24.85q27.3,0,43.57-17.32T1727.94,161v-3.15q0-29.4-16.28-46.72T1668.09,93.8q-27,0-43.4,17.33t-16.45,46.72V161q0,29.4,16.45,46.72T1668.09,225Zm130.2,20V73.85h27V102.9h4.9q5.59-12.25,19.07-22.23t39.73-10q19.24,0,34.47,8.05a60.41,60.41,0,0,1,24.33,23.8q9.1,15.75,9.1,38.85V245h-27.65V143.5q0-25.54-12.78-37.1t-34.47-11.55q-24.86,0-40.42,16.1t-15.58,48V245Z" />
</svg>