<svg xmlns="http://www.w3.org/2000/svg" viewBox="0 0 128 128">
  <defs>
    <style>
      .a, .b, .c {
        fill: #fff;
      }

      .b {
        opacity: 0.5;
      }

      .c {
        opacity: 0.2;
      }
    </style>
  </defs>
  <g>
    <path class="a" d="M33.36689,16H97.79375a4.86674,4.86674,0,0,1,4.77912,4.57689V72.67514c-.0337,3.613.06739,7.23268-.05394,10.84568H33.38037c-.04045-22.49345,0-44.98018,0-67.47363ZM57.9432,32.89874a10.62325,10.62325,0,0,0-4.6443,8.1966h8.71562a6.18132,6.18132,0,0,1,.83583-2.41988A4.5162,4.5162,0,0,1,66.706,36.78135a4.53688,4.53688,0,0,1,3.86911,1.43575c.7819,1.03132.67407,2.39292.67407,3.613a3.37037,3.37037,0,0,1-1.73235,3.07372c-2.02218,1.15264-4.3814.67406-6.5721.82236,0,2.0761-.06742,4.15222.07413,6.22833,2.69625.06741,5.75648-.35726,8.08875,1.39531,1.69865,1.274,1.64471,3.62646,1.429,5.52057a4.18594,4.18594,0,0,1-2.75694,3.46469,7.7045,7.7045,0,0,1-5.39249-.12133,4.7656,4.7656,0,0,1-2.75691-3.85563H52.96185a11.00737,11.00737,0,0,0,4.86,8.52688,17.48864,17.48864,0,0,0,9.62563,2.48054,17.27424,17.27424,0,0,0,10.4884-3.013,9.18889,9.18889,0,0,0,3.94325-7.20573c-.04719-1.948.26964-4.04437-.67406-5.82391-1.34813-2.79735-4.38815-4.33421-7.32031-4.94761a10.73775,10.73775,0,0,0,4.341-2.26484,6.21476,6.21476,0,0,0,2.19745-4.07807c.08089-2.13679.155-4.42859-1.01784-6.32271-1.90086-3.20854-5.64189-4.79257-9.20767-5.26442C66.03194,29.92613,61.50224,30.4519,57.9432,32.89874Z"/>
    <path class="b" d="M30.88633,17.50317a27.32808,27.32808,0,0,1,2.48054-1.44251V83.53427c-2.23789,1.34813-4.45554,2.69625-6.67321,4.04438-2.64906,1.59077-5.28464,3.20854-7.9472,4.77237V24.80325C22.82455,22.39012,26.83523,19.9163,30.88633,17.50317Z"/>
    <path class="c" d="M102.58632,30.98441h6.64625c.04718,27.00293,0,54.01261,0,81.01554H31.648a4.91391,4.91391,0,0,1-4.93414-4.76563V87.5315c2.21767-1.34813,4.43532-2.69625,6.67321-4.04438q34.56592-.06738,69.13857,0c.12132-3.613,0-7.23267.05393-10.84567Q102.5863,51.83988,102.58632,30.98441ZM46.98294,90.14686v14.15531h3.03328V94.899c.883,3.12766,1.63124,6.289,2.521,9.43687h3.28943c.80214-3.01978,1.60427-6.06656,2.34574-9.07959.10111,3.01978,0,6.06656.04719,9.06614h3.37031V90.1671H57.28261c-1.00435,3.78148-1.98849,7.57646-3.01306,11.35123-.97065-3.75453-1.86715-7.52926-2.858-11.28379-1.43575-.16856-2.94565-.027-4.42859-.07422Zm20.49821,0q-2.05588,7.07766-4.04437,14.15531h3.51858c.2494-1.03134.519-2.02219.77519-3.08047h4.26008c.29659,1.03133.58643,2.05588.86282,3.094h3.61971c-1.44925-4.71843-2.83782-9.43687-4.29377-14.1553Zm10.45471,0c1.2605,2.16376,2.57492,4.29378,3.84891,6.444.2292.26289-.06068.53924-.16851.77518-1.40206,2.30528-2.76364,4.63755-4.159,6.94284,1.30769,0,2.62212.03369,3.9298,0,.85607-1.77954,1.80648-3.50514,2.69625-5.26443,1.03133,1.7054,1.83343,3.53883,2.77713,5.29137h3.97024q-2.06262-3.613-4.1455-7.21922c-.08089-.22245-.391-.47185-.2292-.7145,1.29419-2.08958,2.62886-4.1455,3.92305-6.23508h-3.6669c-.91,1.4762-1.66492,3.04-2.51424,4.55667-.84258-1.50315-1.57733-3.06023-2.44685-4.54317-1.274-.0135-2.54123-.02695-3.81522-.0135Z"/>
    <path class="c" d="M68.39791,98.63328c.43815-2.02218.95715-4.04437,1.41551-6.12049.519,2.02218,1.00435,4.04437,1.48969,6.12049C70.33246,98.59284,69.36181,98.59284,68.39791,98.63328Z"/>
  </g>
</svg>
