<svg xmlns="http://www.w3.org/2000/svg" viewBox="0 0 128 128">
  <defs>
    <style>
      .a, .b {
        fill: #fff;
      }

      .b {
        opacity: 0.1;
      }
    </style>
  </defs>
  <g>
    <path class="a" d="M100.69774,81.77959V21.978A5.96584,5.96584,0,0,0,94.71808,16H33.25925a5.9646,5.9646,0,0,0-5.978,5.97816V82.76151a5.8338,5.8338,0,0,0,.08131.94752c.00578.04068.00761.08.01539.1203a1.27027,1.27027,0,0,0,.03058.16779c.78934,5.32067,5.66148,8.59149,16.87842,16.81446,20.274,14.86287,18.87809,14.85677,39.27853.16774C96.52819,91.64574,101.07027,88.77208,100.69774,81.77959ZM92.97225,63.80072a17.41045,17.41045,0,0,1-.746,3.84365,18.52626,18.52626,0,0,1-3.96817,6.88553,20.64852,20.64852,0,0,1-6.94139,5.00839,22.714,22.714,0,0,1-18.23708.03176,20.50707,20.50707,0,0,1-6.94653-4.9885,18.37211,18.37211,0,0,1-3.96925-6.87279,14.75347,14.75347,0,0,1-.63614-3.48269v-.00016a18.33507,18.33507,0,0,1,.1572-2.07319L39.95879,71.7498c-2.048,1.65427-4.80273,1.651-6.0984-.00961-1.27667-1.63325-.6214-4.214,1.40544-5.766.02523-.02.05478-.04106.08222-.06121l21.4856-16.4919-12.04053.02322.00324-.0074c-2.04164-.0074-3.37529-1.38308-2.99116-3.04172a4.33081,4.33081,0,0,1,4.22444-2.91833h.03161l23.75515-.02539-7.79389-6.33783.0054-.00518a2.1051,2.1051,0,0,1,.30581-3.52607,4.15437,4.15437,0,0,1,4.63613-.0054c.01783.01178.0316.02539.0484.038L85.7049,47.963l-.00438.00319A19.324,19.324,0,0,1,90.31769,53.057a17.74962,17.74962,0,0,1,2.53118,6.92653A17.531,17.531,0,0,1,92.97225,63.80072Z"/>
    <path class="b" d="M100.69775,85.84142V26.03982a5.94275,5.94275,0,0,0-4.19915-5.68019v63.037L64.00413,102.89338,31.50966,83.39667V20.35021A5.94234,5.94234,0,0,0,27.28126,26.04V86.82333a5.83268,5.83268,0,0,0,.08131.94752c.00579.04082.0076.08.01537.12032a1.27073,1.27073,0,0,0,.03058.16775c.78935,5.32072,5.66151,8.59152,16.87842,16.81446,20.274,14.86289,18.87809,14.85678,39.27853.16776C96.52819,95.70754,101.07028,92.8339,100.69775,85.84142Z"/>
    <path class="a" d="M84.83539,61.13681a10.672,10.672,0,0,0-1.29984-4.251A11.67668,11.67668,0,0,0,80.66481,53.479a13.65617,13.65617,0,0,0-16.9352.02437,11.72075,11.72075,0,0,0-2.874,3.41732,10.66848,10.66848,0,0,0-1.29465,4.253,10.50043,10.50043,0,0,0,.593,4.518,11.25293,11.25293,0,0,0,2.58293,4.043A13.552,13.552,0,0,0,81.6597,69.704a11.30536,11.30536,0,0,0,2.58076-4.0526A10.52385,10.52385,0,0,0,84.83539,61.13681Zm-6.45175,5.56128a8.66556,8.66556,0,0,1-11.83909,0,6.92947,6.92947,0,0,1-2.15546-5.36394,7.06125,7.06125,0,0,1,2.56277-4.99909,8.69349,8.69349,0,0,1,11.02657,0A7.06819,7.06819,0,0,1,80.54121,61.332,6.94077,6.94077,0,0,1,78.38364,66.69809Z"/>
  </g>
</svg>
