<svg xmlns="http://www.w3.org/2000/svg" viewBox="0 0 128 128">
  <defs>
    <style>
      .a {
        fill: #fff;
      }
    </style>
  </defs>
  <g>
    <path class="a" d="M58.22078,16H73.93952V88.04425a103.96439,103.96439,0,0,1-20.39176,2.12217c-19.19834-.02006-29.192-8.597-29.192-25.06949,0-15.87127,10.60051-26.17173,27.02732-26.17173a25.57423,25.57423,0,0,1,6.83767.8016V16Zm.55083,36.71a15.8256,15.8256,0,0,0-5.30026-.80161c-7.95024,0-12.54242,4.84945-12.54242,13.34815,0,8.27448,4.39008,12.84335,12.44152,12.84335a37.08554,37.08554,0,0,0,5.40115-.39859V52.71Z"/>
    <path class="a" d="M99.64421,40.85943V76.931c0,12.42234-.93053,18.39615-3.66164,23.54653C93.43349,105.429,90.07543,108.55137,83.13656,112l-14.58581-6.87337c6.93887-3.2247,10.29693-6.07413,12.44152-10.42261,2.24519-4.44673,2.95327-9.5971,2.95327-23.14381V40.85972H99.64421ZM82.36151,16H98.08025V31.97158H82.36151Z"/>
  </g>
</svg>
