<svg xmlns="http://www.w3.org/2000/svg" viewBox="0 0 128 128"><path d="M77.75839,47.65047a4.23907,4.23907,0,1,1,4.23907-4.23907A4.23906,4.23906,0,0,1,77.75839,47.65047ZM76.64285,42.928a1.33866,1.33866,0,1,0-1.33866-1.33865A1.33866,1.33866,0,0,0,76.64285,42.928ZM50.20443,47.65047A4.23907,4.23907,0,1,1,54.4435,43.4114,4.23907,4.23907,0,0,1,50.20443,47.65047ZM51.32,42.928a1.33866,1.33866,0,1,0-1.33865-1.33865A1.33866,1.33866,0,0,0,51.32,42.928Z"/><path d="M100.73862,28.649c-2.4914-5.0943-8.51532-.59491-10.03992-2.19391C82.88992,18.42317,73.445,16.41523,66.04519,16.04335H61.95486c-7.43695.186-16.88189,2.34265-24.65356,10.41174-1.52454,1.599-7.58569-2.90039-10.03992,2.19391-2.86322,5.94958,5.83808,6.54456,5.39185,9.18469-.85529,4.75965-.29749,11.82477.37182,18.77832,1.0412,11.7876-7.7716,40.01087,10.56049,51.35224,3.45819,2.15673,12.79156,3.34661,20.89789,3.53259h.07434c8.10632-.186,16.32416-1.37586,19.78235-3.53259C102.70944,96.62288,93.89664,68.39961,94.975,56.612c.63215-6.95355,1.18988-14.01867.37183-18.77832C94.9006,35.19356,103.60184,34.56141,100.73862,28.649ZM33.02505,32.62782c-.14874.8924-3.34662-1.30151-2.04516-2.90045,1.0412-1.33862,2.97479-.9668,3.19787-.18591C34.40091,30.32234,33.39688,30.21077,33.02505,32.62782Zm23.947,18.22052c-8.92431,7.80884-18.22058,0-17.17938-7.88318.9668-7.58569,7.39978-11.15539,11.2298-10.70923C63.44223,33.70619,61.769,46.6465,56.97207,50.84834Zm9.37061,12.68005c-.74371.4834-3.90442.11158-5.05713,0-1.71051-.18591-1.15277-3.83-.81811-3.97876.37188-.18591,4.98278-.63214,6.35864.26026C67.64413,60.36769,67.79288,62.59877,66.34268,63.52839ZM60.17,53.63722a3.24185,3.24185,0,0,1,3.27222-2.30542c3.23511-.0744,4.46222,1.67328,4.57373,3.04913C68.2391,56.72358,59.166,57.28132,60.17,53.63722Zm10.78357-2.78888c-4.79681-4.20184-6.47015-17.14215,5.94959-18.59241,3.86718-.44616,10.30017,3.12354,11.22979,10.70923C89.17416,50.84834,79.878,58.65718,70.95358,50.84834ZM94.93777,32.62782c-.37182-2.417-1.37579-2.30548-1.15271-3.08636.18592-.78089,2.11957-1.15271,3.19788.18591C98.28445,31.32631,95.08652,33.52022,94.93777,32.62782Z" style="fill:#fff"/><path d="M66.97146,52.3846a3.01439,3.01439,0,0,1,1.0445,1.99633c.22314,2.34265-8.85,2.90039-7.846-.74371a2.91659,2.91659,0,0,1,.542-1.09784c-3.43927.98193-4.68585,2.48724-4.3349,4.5932.74372,4.38782,14.76239,3.90442,15.20862.22315C71.83786,55.2126,69.33786,53.29493,66.97146,52.3846Z" style="fill:#7a7a7a"/><path d="M32.76474,74.49794c-2.52857-1.74768-4.5365,7.02789-.44617,6.99072,1.15271-.03717,1.89642-1.56177,1.89642-2.49139C34.215,77.324,33.99185,75.35316,32.76474,74.49794Z" style="fill:#7a7a7a"/><path d="M47.5643,109.71193c-3.23505-1.63611-5.243-4.20185-7.47412-.8924-.74372,1.07837-.78089,1.822.40906,2.37982C45.03573,113.28169,49.0889,110.49281,47.5643,109.71193Z" style="fill:#7a7a7a"/><path d="M95.19809,74.49794c-1.22711.85522-1.4502,2.826-1.4502,4.49933,0,.92962.74372,2.45422,1.89643,2.49139C99.73465,81.52583,97.72665,72.75026,95.19809,74.49794Z" style="fill:#7a7a7a"/><path d="M80.39853,109.3401c-1.5246.78088,2.52856,3.56976,7.06512,1.48737,1.18988-.55774,1.15271-1.30146.409-2.37983C85.64157,105.1382,83.63363,107.704,80.39853,109.3401Z" style="fill:#7a7a7a"/></svg>