<svg xmlns="http://www.w3.org/2000/svg" viewBox="0 0 128 128">
  <defs>
    <style>
      .a {
        fill: #fff;
      }
    </style>
  </defs>
  <g>
    <path class="a" d="M111.45582,62.24314c-.09146-1.39214-.188-2.785-.33326-4.1723a42.96751,42.96751,0,0,0-1.35506-6.858,46.31421,46.31421,0,0,0-4.17062-10.21562A47.992,47.992,0,0,0,89.88419,24.11437a47.04334,47.04334,0,0,0-12.39958-5.72975,45.20322,45.20322,0,0,0-11.13783-1.88113c-2.061-.08053-4.1338-.00463-6.19527.10948A41.43049,41.43049,0,0,0,51.679,18.04753,47.5294,47.5294,0,0,0,18.35415,50.69775a43.02516,43.02516,0,0,0-1.479,7.17356c-.15893,1.396-.32583,2.79572-.37815,4.19791-.05444,1.45881-.0123,2.92436.05683,4.38369.05907,1.24678.19093,2.49187.33566,3.73244a43.2664,43.2664,0,0,0,1.18769,6.04175,46.60941,46.60941,0,0,0,4.142,10.40743A47.8396,47.8396,0,0,0,39.97734,104.981a47.19091,47.19091,0,0,0,20.98614,6.4055c.64488.03861,1.28869.09523,1.933.14353h2.14686c.14234-.0217.284-.053.42714-.06362,1.257-.09308,2.51756-.15054,3.77087-.27894a45.70188,45.70188,0,0,0,10.81125-2.48865,47.0149,47.0149,0,0,0,12.88447-7.05327A47.71609,47.71609,0,0,0,109.429,77.87416a42.89062,42.89062,0,0,0,1.75922-8.6124c.14568-1.55535.25016-3.11565.32567-4.676A20.62627,20.62627,0,0,0,111.45582,62.24314ZM64.07311,106.65155A42.73205,42.73205,0,1,1,106.76976,64.163,42.77332,42.77332,0,0,1,64.07311,106.65155Z"/>
    <path class="a" d="M88.65408,76.28763a.53515.53515,0,0,1-.79752-.2881c-.052-.10977-.05751-.24369-.1179-.34691-.11954-.20434-.21926-.47964-.40448-.57418a5.00929,5.00929,0,0,0-1.33565-.48435,4.19632,4.19632,0,0,1-3.12776-2.06424,1.1834,1.1834,0,0,1,.17863-1.54231,6.93589,6.93589,0,0,1,2.17942-1.63139,2.32513,2.32513,0,0,0,.9614-.5763,4.96284,4.96284,0,0,1,2.73429-1.69931,3.50074,3.50074,0,0,0,1.23919-.68736c.37632-.2907.27-.676-.18107-.83549a3.4617,3.4617,0,0,0-.45563-.10149c-1.07724-.22258-2.0388-.568-2.39128-1.79292a.917.917,0,0,0-1.2447-.65365,4.608,4.608,0,0,0-.50894.1647,6.015,6.015,0,0,1-2.39537.4035A2.21049,2.21049,0,0,1,81.05809,62.497a12.429,12.429,0,0,1-1.69073-4.41221,3.07808,3.07808,0,0,0-.30983-.9488c-.33757-.6548-.72112-1.28578-1.08117-1.92913a2.80372,2.80372,0,0,1-.41874-2.054,6.6681,6.6681,0,0,1,2.93283-4.05068c.75852-.50489,1.61165-.86641,2.41494-1.30567a1.3334,1.3334,0,0,0,.62987-1.797,2.16842,2.16842,0,0,0-.71538-.89665,5.53006,5.53006,0,0,0-1.57839-.69672A1.56128,1.56128,0,0,0,79.10331,45.647a12.50788,12.50788,0,0,0-.28949,1.441,1.58588,1.58588,0,0,1-1.80632,1.44024,1.41011,1.41011,0,0,0-1.64274.65519,1.30121,1.30121,0,0,1-1.7238.54238,9.45694,9.45694,0,0,1-4.244-2.9399,2.053,2.053,0,0,1-.441-1.7922,2.76185,2.76185,0,0,0-.07953-1.42026,3.05476,3.05476,0,0,1-.17586-1.23635,1.59322,1.59322,0,0,1,1.25819-1.33208,2.10065,2.10065,0,0,0,1.4579-1.68213A2.88249,2.88249,0,0,0,71.06,37.25925a1.66737,1.66737,0,0,0-1.61893-.93282,3.18676,3.18676,0,0,0-2.44359,1.207,1.37994,1.37994,0,0,0-.17657,1.59812,8.80816,8.80816,0,0,0,.60683.961c.17444.2595.376.50109.54562.76346a1.03488,1.03488,0,0,1-.02507,1.41143,1.68555,1.68555,0,0,0-.27024.76413,4.3269,4.3269,0,0,1-.56018,1.87645A2.478,2.478,0,0,1,64.7343,46.2884,12.25994,12.25994,0,0,1,61.778,45.745a2.3847,2.3847,0,0,1-1.16666-.74849,5.85964,5.85964,0,0,1-1.23047-2.75,2.50737,2.50737,0,0,0-.38318-1.11821,2.71112,2.71112,0,0,0-2.25458-.97444.80987.80987,0,0,0-.77339.59425.84634.84634,0,0,0,.26859.97109,2.23782,2.23782,0,0,0,.62642.378.94708.94708,0,0,1,.679.93514,3.66673,3.66673,0,0,0,.7065,2.15365c.39073.51547.25862.90949-.34579,1.15393a6.97352,6.97352,0,0,1-1.3795.39479,4.24307,4.24307,0,0,0-1.98851.90521c-.32771.26921-.64569.553-.94581.85251A4.0128,4.0128,0,0,1,51.325,49.63019a6.96286,6.96286,0,0,0-2.03286.64625,1.36208,1.36208,0,0,1-.77028.10875A3.37691,3.37691,0,0,1,46.55662,49.197a24.30736,24.30736,0,0,0-1.96509-2.00655,2.47772,2.47772,0,0,1-1.04766-2.40175,1.27555,1.27555,0,0,0-1.68936-1.35144,1.943,1.943,0,0,0-1.31016,1.673,1.13385,1.13385,0,0,0,.50684,1.2507c.15633.10745.32764.19321.48338.30142a.82345.82345,0,0,1,.32015,1.08449,1.28164,1.28164,0,0,0,.63446,1.78427c.28364.15385.58792.27057.886.39662.70959.3,1.43441.56781,2.128.90078a1.89472,1.89472,0,0,1,1.235,1.62516,3.82147,3.82147,0,0,1-.18959,1.3782c-.24987.726-.59184,1.421-.90871,2.12291a1.11644,1.11644,0,0,1-.90855.65623,5.97,5.97,0,0,1-3.91393-.8572,3.65007,3.65007,0,0,0-1.16588-.34543.6241.6241,0,0,0-.70459.34781.77561.77561,0,0,0,.14733.87424,1.61731,1.61731,0,0,0,.61052.384,2.32829,2.32829,0,0,0,.82143.13388,8.87161,8.87161,0,0,1,3.72644.85011,1.03448,1.03448,0,0,1,.75281,1.2804c-.08731.5602-.29128,1.10293-.36915,1.66373a1.45532,1.45532,0,0,1-1.18717,1.24632,6.70445,6.70445,0,0,1-2.78834.14872c-.76342-.09294-1.52849-.19048-2.29559-.22555a1.853,1.853,0,0,0-.85373.23909A.78674.78674,0,0,0,37.203,63.24c.09484.30014.3659.28627.60748.3112a1.66838,1.66838,0,0,0,.33493.00658c1.23243-.12339,2.46618-.236,3.69621-.38023a2.63676,2.63676,0,0,1,3.30451,2.46312c.096.58292.1582,1.17149.23221,1.75794.09916.78555.20316,1.57063.28924,2.35764a2.17071,2.17071,0,0,1-.60738,1.61708,1.17532,1.17532,0,0,1-1.30705.42887,4.58783,4.58783,0,0,0-2.28254-.14033,2.16865,2.16865,0,0,1-.70077-.00487,3.24987,3.24987,0,0,0-2.15787.42926,1.42824,1.42824,0,0,1-.66021.21076,6.463,6.463,0,0,0-3.04459.78974,1.437,1.437,0,0,1-1.32189-.036,2.57106,2.57106,0,0,0-1.06583-.14332.72486.72486,0,0,0-.66332.72723A1.81687,1.81687,0,0,0,34.09955,75.357,8.97572,8.97572,0,0,0,36.107,74.234a4.46357,4.46357,0,0,1,3.87531-1.13968c.22354,0,.44831.01529.67044-.00246a6.087,6.087,0,0,1,3.95917,1.40243c.46956.32136.435.53388-.0808.76565a1.1829,1.1829,0,0,0-.79371,1.06591,4.66417,4.66417,0,0,0,.1154,1.1592,1.02549,1.02549,0,0,0,1.03313.83714,3.582,3.582,0,0,0,1.94773-.5176.94036.94036,0,0,1,1.45568.43371A5.0786,5.0786,0,0,1,48.74859,79.83c.21664,2.04676,1.67533,3.95541,4.33675,3.3239,1.106-.26245,2.19545-.5958,3.29032-.90436a5.70205,5.70205,0,0,1,2.53339-.32341,2.5486,2.5486,0,0,1,2.16825,3.1724,6.57971,6.57971,0,0,0-.11953,1.85546c.08479,1.05366.24623,2.10344.42479,3.1464a10.68953,10.68953,0,0,0,.48569,1.90712,1.12011,1.12011,0,0,0,1.784.61833,2.67647,2.67647,0,0,0,1.50692-2.36892,3.76743,3.76743,0,0,0-.46956-2.06206,1.882,1.882,0,0,1-.26276-.715,17.69051,17.69051,0,0,1-.12564-1.934,3.04149,3.04149,0,0,0-.32355-1.5176,1.14148,1.14148,0,0,1,.23563-1.51928,5.28224,5.28224,0,0,1,2.76255-1.5505c.3516-.05838.69844-.14543,1.04741-.21959a4.07244,4.07244,0,0,1,3.94264,1.12221c.36463.36187.68376.772,1.06511,1.11384a3.48529,3.48529,0,0,0,1.05684.73582,4.525,4.525,0,0,0,3.4562-.22713.91458.91458,0,0,0,.50705-1.37763,10.63171,10.63171,0,0,0-.65593-1.08728,8.46787,8.46787,0,0,1-.47761-.76621.71961.71961,0,0,1,.32137-1.02943,3.23958,3.23958,0,0,1,.771-.31536c.56-.14938,1.13742-.23706,1.69208-.40242a1.62957,1.62957,0,0,0,1.26238-2.12943,1.66905,1.66905,0,0,1,.28-1.74609.51519.51519,0,0,0,.07487-.149c.26683-.56051.41183-.65995,1.0159-.57124a5.80674,5.80674,0,0,1,3.33826,1.77718,1.94242,1.94242,0,0,0,1.55311.75733c.62318-.02816.78539.21445.8527.8255a1.0297,1.0297,0,0,0,.28914.64358,2.93884,2.93884,0,0,0,2.5465.60069.58369.58369,0,0,0,.45457-.7435A1.86659,1.86659,0,0,0,88.65408,76.28763Z"/>
    <path class="a" d="M45.39627,84.598a3.99658,3.99658,0,0,0-3.80733,3.97791,4.12107,4.12107,0,0,0,2.952,3.803,4.31927,4.31927,0,0,0,3.70671-1.03823,2.39469,2.39469,0,0,0,.8727-1.60956c.04139-.32061.07154-.64266.09255-.83432a4.8142,4.8142,0,0,0-.669-2.62213A3.29786,3.29786,0,0,0,45.39627,84.598Z"/>
    <path class="a" d="M82.83125,42.88455c1.23827-.12872,1.55312-.431,1.71186-1.66462a.98724.98724,0,0,1,.398-.70262A1.85427,1.85427,0,0,0,85.17,37.45336a12.57787,12.57787,0,0,0-1.746-1.40418,2.28205,2.28205,0,0,0-2.94372.29933,4.69918,4.69918,0,0,0-1.302,3.31216l-.0855.03057a7.51149,7.51149,0,0,0,.39373,1.39132A3.12608,3.12608,0,0,0,82.83125,42.88455Z"/>
    <path class="a" d="M94.414,63.38639a4.17625,4.17625,0,0,0,2.2468.89728c.84884.01692,1.29514-.17425,1.47986-.59188a2.254,2.254,0,0,0-.59674-2.46688,2.58292,2.58292,0,0,0-3.35762.61127C93.74836,62.545,93.86209,62.95651,94.414,63.38639Z"/>
    <path class="a" d="M88.27526,51.69636a7.31846,7.31846,0,0,0,.72385.11662,1.80564,1.80564,0,0,0,1.7031-1.05117,2.56856,2.56856,0,0,0,.15424-1.95172,1.10683,1.10683,0,0,0-1.59933-.77139,3.17335,3.17335,0,0,0-1.89033,2.08543A1.148,1.148,0,0,0,88.27526,51.69636Z"/>
    <path class="a" d="M96.02218,72.31326a1.08078,1.08078,0,0,0,.689,1.75953,8.46929,8.46929,0,0,0,.8777.1174c.48421-.09707,1.07691-.19432,1.65821-.33778a1.08323,1.08323,0,0,0,.811-1.54028,1.6765,1.6765,0,0,0-1.58841-1.16846A2.63543,2.63543,0,0,0,96.02218,72.31326Z"/>
    <path class="a" d="M83.57915,83.43284a4.24452,4.24452,0,0,0-1.98184-.156,1.39122,1.39122,0,0,0-1.1099,1.18828,1.87673,1.87673,0,0,0,1.82651,2.04438,2.01707,2.01707,0,0,0,2.10365-1.88862A1.13249,1.13249,0,0,0,83.57915,83.43284Z"/>
    <path class="a" d="M65.01441,93.93451a.78206.78206,0,0,0-.38054-.10657,1.63464,1.63464,0,0,0-1.796,1.74735,1.70035,1.70035,0,0,0,1.13061,1.68963,2.03966,2.03966,0,0,0,2.277-.70321,1.15784,1.15784,0,0,0,.083-1.18072A3.66238,3.66238,0,0,0,65.01441,93.93451Z"/>
    <path class="a" d="M51.81593,37.55341a1.284,1.284,0,0,0,1.47076-.32261,2.18283,2.18283,0,0,0-.0019-2.82468,1.03852,1.03852,0,0,0-1.61837-.05636,2.351,2.351,0,0,0-.76847,1.53551C50.89516,36.85361,51.18052,37.30152,51.81593,37.55341Z"/>
    <path class="a" d="M55.80778,32.98385a1.568,1.568,0,0,0,1.28455,1.43477,1.38812,1.38812,0,0,0,1.524-.88447,1.97367,1.97367,0,0,0-.09872-1.68126,1.605,1.605,0,0,0-1.5017-.87239,1.474,1.474,0,0,0-1.14765,1.20784c-.04107.1722-.05875.35-.08717.52516l.02555.00312C55.80668,32.80572,55.79973,32.89546,55.80778,32.98385Z"/>
    <path class="a" d="M92.32061,67.98726c-.60481-.00144-.72178.04825-.97416.39371a2.117,2.117,0,0,0,.17448,2.54661,1.38177,1.38177,0,0,0,2.053-.04376,1.87274,1.87274,0,0,0,.22034-2.02252A1.41716,1.41716,0,0,0,92.32061,67.98726Z"/>
    <path class="a" d="M32.12265,55.36227a3.03759,3.03759,0,0,0,2.02418.68928,1.56958,1.56958,0,0,0,.97226-.38016.9214.9214,0,0,0,.22518-1.35448,3.67435,3.67435,0,0,0-.79759-.79858.99834.99834,0,0,0-.70942-.18877,6.48731,6.48731,0,0,0-1.59911.54C31.55774,54.23129,31.53527,54.85585,32.12265,55.36227Z"/>
    <path class="a" d="M34.04924,63.76264a1.60441,1.60441,0,0,0,1.12638-.51246.855.855,0,0,0,.00026-1.32637,1.87234,1.87234,0,0,0-1.49265-.63818,2.61861,2.61861,0,0,0-1.52375.40717.78671.78671,0,0,0-.12546,1.26786A2.505,2.505,0,0,0,34.04924,63.76264Z"/>
    <path class="a" d="M82.04027,51.89a1.97185,1.97185,0,0,0-1.493-.12748.47517.47517,0,0,0-.32523.76977,2.03969,2.03969,0,0,0,1.14223.917c.43632.17074,1.18591-.46778,1.13511-.911A.75036.75036,0,0,0,82.04027,51.89Z"/>
  </g>
</svg>
