<svg xmlns="http://www.w3.org/2000/svg" viewBox="0 0 128 128">
  <defs>
    <style>
      .a {
        fill: #fff;
      }
    </style>
  </defs>
  <path class="a" d="M112.50117,79.7749a3.72506,3.72506,0,0,0-3.85465-3.15822h-.92317l.37251-1.19851c.35631-1.10133.68023-2.18646.988-3.2392a51.17938,51.17938,0,0,0,1.87873-22.04275,31.16114,31.16114,0,0,0-7.11-15.87208,39.74507,39.74507,0,0,0-12.19559-9.50706,72.44474,72.44474,0,0,0-33.94681-8.74583c-2.0245,0-4.09759.09718-6.13829.25914a37.88229,37.88229,0,0,0-12.9568,3.385,37.348,37.348,0,0,0-16.01784,14.5764,49.31691,49.31691,0,0,0-7.11005,21.735,36.50591,36.50591,0,0,0,3.07724,18.83595c.45349.95556.97176,1.91113,1.47384,2.86669.19435.34012.3887.69643.56686,1.05274a3.36878,3.36878,0,0,0-2.0407,1.39286,4.85882,4.85882,0,0,0-.30772,4.8588,8.95639,8.95639,0,0,0,6.65656,4.713h.53446a2.25126,2.25126,0,0,0,2.0407-1.32808c.11337-.22674.24294-.42109.35631-.61544h0l2.52658,2.33222c2.0083,1.84634,4.08139,3.74128,6.17067,5.55523a96.10715,96.10715,0,0,0,7.75789,6.31644,13.31317,13.31317,0,0,1,4.42151,4.76162,9.58655,9.58655,0,0,0,.50207.84219l.50208.84219,2.0245-4.16237a17.81564,17.81564,0,0,1,3.33637,4.8588c.43729.8422.89078,1.6196,1.40906,2.51038l.24293.38871,2.316-5.701,3.69269,4.32433.50208-1.00415c.29153-.58306.56686-1.13372.87458-1.6196s.56686-1.03654.87459-1.6196l.19435-.35631,1.78156,4.713.21055.14577h.29153l4.43769-7.40158.97176,4.32433.988-1.29568a26.57756,26.57756,0,0,1,3.91943-4.48629l-.3887,2.8181.12957.24295.32392.11337.89078-.988.61545-.72882c.84219-.97176,1.70058-1.95972,2.54277-2.96387a5.40946,5.40946,0,0,1,4.30814-2.0245h.93936a2.49419,2.49419,0,0,0,1.24709-.27533l-.3887,1.6196.29152.21055h.27533l.12957-.21055.17816-.25914.69643-.8098c.45349-.51827.89078-1.02035,1.32807-1.6196a20.11551,20.11551,0,0,1,5.782-4.98836,22.38285,22.38285,0,0,0,3.385-2.559l.61545-.51827a14.04342,14.04342,0,0,0,1.26328-1.32807l.38871-.45349a3.7899,3.7899,0,0,0,2.78571.97176h.34012a15.27286,15.27286,0,0,0,1.87873-.19435,6.00873,6.00873,0,0,0,5.16653-4.8588A7.64454,7.64454,0,0,0,112.50117,79.7749Zm-7.09385,1.92732.09718.61545h-.69643v2.98007h-.59925c-.71262,0-1.37666-.11338-2.10548-.14577a1.00412,1.00412,0,0,0-.71262.29153,39,39,0,0,1-8.098,7.45016,14.9812,14.9812,0,0,0-3.2392,3.35257l-.3887.48588.16195-2.13787V94.3675l-.3725-.081-.29153.61545c-.17816.32392-.34012.664-.50208.988a1.78156,1.78156,0,0,1-1.83015,1.14991H85.049a5.31225,5.31225,0,0,0-3.70889,2.17027c-.50208.58305-.97176,1.2147-1.45764,1.83015l-.58305.80979.46969-2.78571-.43729.30772a24.29379,24.29379,0,0,0-5.65241,4.8588,11.45081,11.45081,0,0,1-.745-3.69269v-.8098l-5.42565,7.96844a9.71771,9.71771,0,0,1-1.2471-4.63206v-.53447l-.34011.42109a25.703,25.703,0,0,0-3.2392,5.05315l-4.30814-4.16237-1.6196,5.34468-.93937-1.49a19.17586,19.17586,0,0,0-3.6279-4.38912.77743.77743,0,0,0-.48588-.24294.664.664,0,0,0-.51827.38871c-.32392.50207-.64784,1.00415-.988,1.50622l-.24294.37251-.19435.25914-.162-.22675a18.90069,18.90069,0,0,0-5.52284-5.76577A101.24164,101.24164,0,0,1,29.189,86.54483a1.29568,1.29568,0,0,0-.97176-.46969h-.32392c-.68023.12957-1.36046.22675-2.08928.34012l-.63165.09718v-1.6196c0-.29153,0-.71263-.53446-.826l-.14577-.21055a2.26837,2.26837,0,0,0-.162-.25913V83.5l-2.52658-.17815,2.00831-2.07309-1.42525-.59925L23.42317,79.532l-.50207-.8098-.89078-1.49a34.86991,34.86991,0,0,1-4.81021-20.43935,46.2719,46.2719,0,0,1,8.098-23.43561A34.18968,34.18968,0,0,1,40.16984,21.0806a37.39658,37.39658,0,0,1,10.1063-2.63995,60.04109,60.04109,0,0,1,7.272-.45349,69.91839,69.91839,0,0,1,14.5764,1.6196A68.7197,68.7197,0,0,1,91.77029,26.814a36.279,36.279,0,0,1,11.01328,8.98878,30.497,30.497,0,0,1,6.28405,15.83969,53.8192,53.8192,0,0,1-.87458,16.6009c-.34012,1.79776-.8098,3.61171-1.26329,5.36088-.22674.92317-.46969,1.83015-.68023,2.73712a1.29574,1.29574,0,0,0,0,.77741,4.71293,4.71293,0,0,0,.37251.68023v.09717l-.42109.21055.92317,1.32808-1.76537.35631,2.559,1.45764ZM77.5502,69.08554a9.19933,9.19933,0,0,0-12.19559,3.40115l-.24294.4211a12.58511,12.58511,0,0,1-.85839,1.409c-.24293.35631-.50207.55066-.72882.55066a1.2147,1.2147,0,0,1-.745-.55065c-.29153-.35631-.55066-.745-.8098-1.11752a11.9203,11.9203,0,0,0-3.061-3.49834,9.40991,9.40991,0,0,0-5.39327-1.6196,12.84372,12.84372,0,0,0-3.385.48588,5.81437,5.81437,0,0,0-4.27575,4.40532,9.36132,9.36132,0,0,0,1.2309,7.70929,6.70512,6.70512,0,0,0,5.2475,3.2392h.93937l1.70058.14576c1.10133.11337,1.49.53447,1.6196,1.6196v1.91113h-.09717v1.99211a8.681,8.681,0,0,0,1.70057,5.2475,2.25125,2.25125,0,0,0,1.74917,1.02035,2.57511,2.57511,0,0,0,1.37666-.48588,11.337,11.337,0,0,0,1.2309-1.02035.63161.63161,0,0,1,.37251-.19435.664.664,0,0,1,.3887.21055A9.89568,9.89568,0,0,0,64.642,95.485a2.154,2.154,0,0,0,1.1985.42109,1.895,1.895,0,0,0,1.45765-.7774,6.55959,6.55959,0,0,0,.85838-1.31188,11.33707,11.33707,0,0,0,.988-5.782,17.08816,17.08816,0,0,1,0-2.26744,1.6196,1.6196,0,0,1,1.49-1.6196,7.46512,7.46512,0,0,1,.8098-.11338l2.63995-.21055a6.47841,6.47841,0,0,0,5.08554-2.93147,9.71762,9.71762,0,0,0,1.32808-8.19517,5.701,5.701,0,0,0-2.91529-3.61171ZM59.57264,79.64533a9.71773,9.71773,0,0,1-4.06519,1.6196h-.27534a2.44559,2.44559,0,0,1-1.95971-.95557,9.5719,9.5719,0,0,1-1.733-3.46594.37255.37255,0,0,1,0-.29153.6319.6319,0,0,1,.30773-.09717h2.70473l1.39286.09717a3.33641,3.33641,0,0,1,2.51038,1.26329l.17815.22674c.32393.4211.664.8422.95557,1.29568a.729.729,0,0,1,.0162.30774Zm16.01785-3.385a8.56784,8.56784,0,0,1-1.95972,3.82226,2.34842,2.34842,0,0,1-1.78155.64784h0a9.507,9.507,0,0,1-4.17858-1.6196.17816.17816,0,0,1,0-.32392l.4373-.56686c.3725-.48588.745-.97176,1.16611-1.42525a3.06105,3.06105,0,0,1,2.08928-.85839h4.00041a.30771.30771,0,0,1,.24294,0,.86908.86908,0,0,1,.0162.32392Z"/>
</svg>
