<svg xmlns="http://www.w3.org/2000/svg" viewBox="0 0 128 128">
  <defs>
    <style>
      .a {
        fill: #fff;
        fill-rule: evenodd;
      }
    </style>
  </defs>
  <path class="a" d="M72.55946,16a6.10847,6.10847,0,0,0-1.94139.34846,5.48168,5.48168,0,0,1,2.31475,3.23567c.025.17422.07467.29868.09959.4729a2.73491,2.73491,0,0,1,.04975.448c.09961,2.19029-.57248,2.46408-1.04538,3.75835a5.31864,5.31864,0,0,0,.34845,4.90329,2.97418,2.97418,0,0,0,.29869.54757c-.94582-6.29711,4.30593-7.24292,5.27662-9.20921.07467-1.7174-1.344-2.86233-2.46407-3.6588A5.49884,5.49884,0,0,0,72.55947,16Zm7.91494,1.41872a2.88068,2.88068,0,0,0-.04974.7218c-.02492.19912-.02492.448-.04974.64714a5.40467,5.40467,0,0,1-.17423.59736,5.59389,5.59389,0,0,1-.19911.59734c-.09961.19913-.17424.37335-.27379.57247-.07467.0996-.12445.19911-.19912.29868l-.14933.224c-.12445.17423-.24891.34845-.37335.49779a3.80826,3.80826,0,0,1-.448.448v.02492c-.14933.12445-.29868.27379-.4729.39823-.52269.39824-1.12.69691-1.66761,1.07026a3.711,3.711,0,0,0-.49779.37335,3.63935,3.63935,0,0,0-.4729.39823,4.02749,4.02749,0,0,0-.448.47291,3.71084,3.71084,0,0,0-.37334.4978c-.12446.17422-.24889.34846-.34846.52268-.0996.19911-.17423.37335-.27379.57246a5.21558,5.21558,0,0,0-.19912.57246c-.07467.224-.12445.42313-.17423.62226-.02492.0996-.02492.224-.04974.32356-.025.0996-.025.19911-.04974.29868,0,.19911-.02492.42313-.02492.62224a2.702,2.702,0,0,0,.02492.448,2.82465,2.82465,0,0,0,.07467.62224,5.09982,5.09982,0,0,0,.12446.59736c.07467.19912.12445.39824.19911.59735.04975.12446.12444.2489.17423.34846l-5.72465-2.21519c-.9707-.27379-1.9165-.52268-2.88721-.74669l-1.56805-.37335c-1.49339-.29867-3.01165-.52268-4.52993-.672-.04974,0-.07467-.02493-.12445-.02493a44.50371,44.50371,0,0,0-4.45526-.224c-1.09516,0-2.19032.04973-3.26057.12444-1.51828.0996-3.03656.29868-4.55482.54757-.37335.04974-.7467.12446-1.12.19913-.77158.14933-1.51827.32356-2.24007.49779q-.56.1494-1.12.29867c-.37334.14934-.72179.32358-1.07026.47291l-.82136.37335c-.04974.02493-.0996.02493-.12444.04974-.24891.12445-.47292.224-.69691.34846a1.21362,1.21362,0,0,0-.17424.07467c-.27378.12444-.54757.27378-.77158.39823-.17423.07467-.34845.17423-.49779.2489a2.24437,2.24437,0,0,1-.224.12445c-.224.12445-.448.24889-.64714.37335a6.26309,6.26309,0,0,0-.59736.37333c-.17422.12446-.34845.224-.49779.34846-.02494.02492-.04974.02492-.07467.04974a5.75112,5.75112,0,0,0-.4729.34846l-.04974.04975-.37335.29866c-.04974.02493-.0996.07467-.14934.0996-.12444.0996-.24889.224-.37334.32358-.02493.04974-.07466.07466-.09959.09959-.14934.14934-.29868.27379-.448.42313-.02494,0-.02494.02493-.04974.04974-.14934.12445-.29868.27378-.448.42313-.02493.02492-.02493.04973-.04974.04973-.12445.12445-.24889.24891-.37335.39824-.04974.04974-.12445.09959-.17422.14933-.12445.14935-.27379.29868-.42313.448-.02493.04974-.07467.07466-.0996.12444-.19911.19913-.37335.39824-.57246.59736l-.07467.07467a14.69128,14.69128,0,0,1-1.26938,1.2196A14.14841,14.14841,0,0,1,29.42571,38.326c-.49779.34847-.97069.64713-1.49338.94581a15.16855,15.16855,0,0,1-1.56806.7467c-.52269.224-1.07026.42313-1.61783.59735a27.85629,27.85629,0,0,1-3.03656.7218,5.29611,5.29611,0,0,0-.62224.07467c-.224.04974-.42312.0996-.62224.14934l-.59735.224a6.36338,6.36338,0,0,0-.59735.2738c-.17424.12444-.37335.224-.54758.34845a4.06015,4.06015,0,0,0-.4978.42313,4.26142,4.26142,0,0,0-.49779.448c-.14934.17424-.29868.32358-.42313.49779-.12445.19912-.27379.37335-.37335.57247a4.38561,4.38561,0,0,0-.34845.57246c-.0996.224-.19912.42313-.27379.64714-.07467.19912-.14934.42312-.224.64713a5.09574,5.09574,0,0,0-.12444.59734c0,.025-.02493.04975-.02493.07468-.04974.224-.04974.5227-.07467.672a3.36756,3.36756,0,0,0-.04974.49779,1.41674,1.41674,0,0,0,.02493.32356,2.64029,2.64029,0,0,0,.09959.47292,3.32492,3.32492,0,0,0,.17423.448v.02492a4.329,4.329,0,0,0,.27378.448,5.05743,5.05743,0,0,0,.32357.448c.12445.12445.27379.27378.42313.39823a3.63922,3.63922,0,0,0,.4729.39823A5.79231,5.79231,0,0,0,19.12143,52.115c.12444.07467.2489.12445.39824.19912.02493,0,.04974.02492.07467.02492a.2242.2242,0,0,0,.02493.12446,5.10576,5.10576,0,0,0,.12445.59735,3.35478,3.35478,0,0,0,.19913.59736c.07467.14934.12444.29868.19911.448a.54385.54385,0,0,0,.07467.12445c.0996.19911.19912.37335.29867.54757l.37335.52269c.12444.14933.27378.32356.42312.4729s.29868.27379.47292.42312a.087.087,0,0,0,.04974.025,5.46028,5.46028,0,0,0,.448.34845,3.96185,3.96185,0,0,0,.54757.32358,4.04638,4.04638,0,0,0,.57246.27378,2.92782,2.92782,0,0,0,.4978.17424c.02493.025.04974.025.0996.04975.09959.025.224.04973.32356.07466a9.902,9.902,0,0,0,.0996,3.06144c.224.49779,1.31915-1.02048,2.4143-2.76276a15.18894,15.18894,0,0,0,0,4.33082c.27379.62222,1.76717-1.31917,3.06144-3.45969a28.76551,28.76551,0,0,1,35.443,25.33777c-.32356-2.68809-3.6339-4.18147-5.15217-3.80812a12.98213,12.98213,0,0,1-4.057,5.67486,15.95917,15.95917,0,0,0-.24889-4.978,16.09743,16.09743,0,0,1-3.08635,6.27222,6.95226,6.95226,0,0,1-5.97355-2.68809c-.0996-.07468-.12444-.224-.19911-.32357a4.488,4.488,0,0,1-.19912-.52269,2.06641,2.06641,0,0,1-.14934-.52268,3.8476,3.8476,0,0,1-.02493-.54757V82.157a3.98476,3.98476,0,0,1,.12445-.5227,4.28964,4.28964,0,0,1,.17423-.52268,5.59942,5.59942,0,0,1,.29868-.52268c.42313-1.19472.42313-2.16541-.34846-2.73787a2.83414,2.83414,0,0,0-.47291-.24891c-.0996-.02492-.224-.07467-.32356-.09959-.07467-.02492-.12445-.04976-.19912-.07468a3.977,3.977,0,0,0-.52269-.12444,1.89619,1.89619,0,0,0-.52268-.07467,4.05861,4.05861,0,0,0-.54758-.04974c-.12444,0-.2489.02492-.37334.02492a1.94358,1.94358,0,0,0-.54758.07467,3.86415,3.86415,0,0,0-.52268.09959,4.28756,4.28756,0,0,0-.52269.17424c-.17422.07467-.32357.14934-.4978.224-.14933.07467-.29867.17422-.4729.24889C35.17535,81.80859,38.635,90.66934,42.5925,93.233a12.42716,12.42716,0,0,0-3.43478.92092l-.04974.04974a23.45181,23.45181,0,0,0,3.36011,1.66761c1.593.52269,3.28545.99559,4.03215,1.19471v.02492a24.07954,24.07954,0,0,0,6.27222.448A23.67445,23.67445,0,0,0,74.47634,77.32842c.04974.224.09959.42313.14934.64714.07467.448.17422.92091.224,1.39381v.025c.04974.224.07467.448.0996.64713v.09961a6.10925,6.10925,0,0,1,.04975.64713c.02491.27378.04973.54757.04973.82137v.39823c0,.12446.02492.27379.02492.39824,0,.14934-.02492.29867-.02492.448v.34845c0,.17424-.025.32357-.025.4978a1.52907,1.52907,0,0,1-.02492.32357c0,.17423-.02492.34845-.02492.54756a.68735.68735,0,0,0-.025.224c-.02492.19911-.04974.37335-.07467.57247a.68834.68834,0,0,1-.02492.224c-.025.24889-.07466.4729-.09958.7218v.04988c-.04974.224-.09961.47289-.14936.6969v.07467q-.07459.336-.14933.672c0,.025-.02491.07467-.02491.09959a6.68065,6.68065,0,0,1-.17423.672v.07466c-.07467.24889-.14934.4729-.19912.69691a.077.077,0,0,0-.02492.04974l-.224.74669c-.09959.2489-.17423.47291-.27379.72181s-.17423.4978-.27379.7218c-.0996.24891-.19912.47291-.29868.72181h-.025c-.09961.224-.19913.4729-.32358.69692a1.21336,1.21336,0,0,1-.07466.17422c-.02492.025-.02492.04974-.04974.07467a23.55839,23.55839,0,0,1-6.994,8.36295c-.19912.12445-.39824.27379-.59735.42312-.04974.04975-.12446.07468-.17423.12445-.17423.12444-.34846.24889-.54757.37335l.07466.14934h.02492q.52269-.07461,1.04537-.14934h.02492c.64714-.0996,1.29427-.224,1.94141-.34846a4.34357,4.34357,0,0,0,.54757-.12445c.12444-.025.224-.04974.34845-.07467.17423-.025.34846-.07466.5227-.0996.14933-.04974.29868-.07467.448-.12444a47.17107,47.17107,0,0,0,7.218-2.38942A39.86053,39.86053,0,0,1,60.91108,112a40.952,40.952,0,0,0,8.48741-1.46849A39.76693,39.76693,0,0,0,92.9193,91.73974,39.72868,39.72868,0,0,1,86.224,107.74386,39.11377,39.11377,0,0,0,103.34811,81.062a39.634,39.634,0,0,1,.72181,11.99686c17.9704-25.064,1.49338-51.04889-5.40108-57.89357-.025-.04974-.04974-.07467-.04974-.12445-.025.02492-.025.02492-.025.04975,0-.02493,0-.02493-.02492-.04975,0,.29869-.02492.59735-.04974.896-.07467.57247-.14933,1.12-.2489,1.66762-.12444.54757-.27379,1.09514-.42313,1.64272-.17422.52268-.37333,1.07025-.59735,1.59294-.224.49779-.47291,1.02048-.74669,1.51828-.27379.47291-.57246.9707-.896,1.41871-.32356.47292-.672.92093-1.02049,1.344-.37335.448-.77157.84627-1.16982,1.2445-.24889.224-.47289.42313-.7218.62224-.19911.17424-.37334.32358-.57247.49779a13.89074,13.89074,0,0,1-1.39381.97071c-.47291.29868-.9707.59735-1.4685.84626-.52269.24889-1.04537.47289-1.568.69691-.5227.19911-1.07026.37335-1.61786.52269s-1.12.27378-1.6676.37334c-.57246.0996-1.14492.14934-1.6925.19912-.39824.02492-.79647.04975-1.19471.04975-.57247,0-1.14492-.04975-1.6925-.0996a16.7516,16.7516,0,0,1-3.36012-.672h-.02492c.54757-.04974,1.09515-.09961,1.64273-.19913.57246-.09959,1.12-.224,1.66761-.37335s1.09515-.32357,1.61783-.52268a14.946,14.946,0,0,0,1.56806-.69692c.52268-.2489.99559-.52268,1.49338-.82136.4729-.32356.94581-.64713,1.39382-.99559a20.319,20.319,0,0,0,2.4392-2.33964q.56-.672,1.04537-1.344c.04975-.07467.09961-.17422.14935-.24889.24889-.39824.49778-.79648.72178-1.19472.2738-.4978.5227-.9956.7467-1.51827s.42314-1.04538.59736-1.59294c.17422-.5227.29867-1.07026.42313-1.61783.0996-.57247.19911-1.12.24889-1.66762.04974-.57246.0996-1.14493.0996-1.6925,0-.39824-.025-.79648-.04973-1.19471-.04975-.57246-.12446-1.12-.19912-1.66761-.0996-.57247-.224-1.12-.37336-1.66762-.17422-.52268-.34845-1.07026-.54756-1.59293s-.448-1.04538-.69693-1.54318c-.27379-.49779-.54757-.99559-.84624-1.46849-.32357-.4729-.64714-.92092-.9956-1.36894-.37333-.42312-.74668-.84625-1.14493-1.26937-.19911-.19912-.42312-.42313-.64713-.62224-1.12-.87115-2.28986-1.69251-3.45966-2.4392a4.63564,4.63564,0,0,0-.4978-.24891,9.69883,9.69883,0,0,0-2.36453-1.04536Z"/>
</svg>
