<svg xmlns="http://www.w3.org/2000/svg" viewBox="0 0 128 128">
  <defs>
    <style>
      .a {
        fill: #fff;
      }
    </style>
  </defs>
  <g>
    <path class="a" d="M10.48732,103.76855V23.2222c0-.5872.2521-.88236.7563-.88236q2.01525,0,4.78992-.06342,2.77038-.06224,5.987-.12605,3.21429-.06223,6.80673-.126,3.59244-.06223,7.12225-.06341a47.3496,47.3496,0,0,1,16.13448,2.395,27.98932,27.98932,0,0,1,10.52484,6.42858,24.66853,24.66853,0,0,1,5.73569,8.887,29.48007,29.48007,0,0,1,1.76471,10.14668q0,10.08561-4.66388,16.63868A26.35591,26.35591,0,0,1,52.84032,75.974a50.16089,50.16089,0,0,1-17.64708,2.96257q-2.77391,0-3.90757-.06341-1.13446-.06224-3.40337-.06341v24.832a1.00213,1.00213,0,0,1-1.13367,1.13446h-15.379C10.78091,104.777,10.48732,104.44264,10.48732,103.76855Zm17.395-66.30264V63.55839q1.63708.12684,3.02522.126h4.15967a29.741,29.741,0,0,0,9.01223-1.2605A13.58788,13.58788,0,0,0,50.508,58.26426q2.458-2.89838,2.45838-8.06724A12.74871,12.74871,0,0,0,51.139,43.26424a11.7538,11.7538,0,0,0-5.48281-4.47441,23.35379,23.35379,0,0,0-9.20169-1.57524q-3.02521,0-5.35754.06264-2.33468.06459-3.21469.18868Z"/>
    <path class="a" d="M116.87326,92.29794v10.33615q0,1.38813-1.0084,1.63866a44.31262,44.31262,0,0,1-5.042,1.2605,32.65335,32.65335,0,0,1-6.05043.5042q-8.196,0-12.85716-4.28572-4.66465-4.28415-4.66387-13.73951V56.75166h-7.437q-1.01,0-1.0084-1.13445v-12.479q0-1.00763,1.13446-1.0084h7.437q.1245-2.14207.31552-4.97861.18908-2.83614.5042-5.67228.31356-2.83614.56684-4.60046a2.18916,2.18916,0,0,1,.37815-.69289,1.34178,1.34178,0,0,1,.63025-.44078l15-1.89076a1.05561,1.05561,0,0,1,.69288.03444c.16676.08456.18947.30221.18947.72186q-.25366,2.90073-.37815,7.87777-.12684,4.98057-.25211,9.64248h11.72271q.7563,0,.7563,1.00841V55.87008a.77607.77607,0,0,1-.63025.88236h-11.9748V83.72727q0,4.28651,1.45,6.11307,1.44684,1.82851,5.35676,1.82813c.75631,0,1.46877-.01957,2.14286-.06342q1.00763-.06224,2.01681-.18868a.80247.80247,0,0,1,.69289.06264C116.76679,91.60505,116.87326,91.87829,116.87326,92.29794Z"/>
  </g>
</svg>
