<svg xmlns="http://www.w3.org/2000/svg" viewBox="0 0 128 128">
  <defs>
    <style>
      .a {
        fill: #fff;
      }
    </style>
  </defs>
  <g>
    <path class="a" d="M63.49328,20.98079a58.61079,58.61079,0,0,0-9.80865.83733c-8.68614,1.53455-10.26321,4.74651-10.26321,10.6699v7.823H63.94783v2.60767H35.718c-5.96555,0-11.18915,3.58564-12.823,10.40675-1.88466,7.81857-1.96825,12.69749,0,20.86134,1.45909,6.07685,4.9436,10.40674,10.90914,10.40674H40.8616v-9.378a13.04422,13.04422,0,0,1,12.823-12.75126H74.18711A10.34148,10.34148,0,0,0,84.45032,52.03356V32.488c0-5.56277-4.69283-9.7415-10.26321-10.66991A64.02389,64.02389,0,0,0,63.49328,20.98079Zm-11.10053,6.2919a3.912,3.912,0,1,1-3.85169,3.92346A3.89459,3.89459,0,0,1,52.39275,27.27269Z"/>
    <path class="a" d="M87.01014,42.91869v9.11488A13.16523,13.16523,0,0,1,74.18711,65.048H53.68463A10.471,10.471,0,0,0,43.42142,75.47865V95.02419c0,5.56278,4.83722,8.83474,10.26321,10.43067a34.34194,34.34194,0,0,0,20.50248,0c5.16761-1.49619,10.26321-4.50728,10.26321-10.43067v-7.823H63.94783V84.59352h30.7657c5.96555,0,8.18856-4.16109,10.2632-10.40674,2.143-6.4298,2.05185-12.6131,0-20.86134-1.47429-5.93874-4.29006-10.40675-10.2632-10.40675ZM75.479,92.41653a3.912,3.912,0,1,1-3.8517,3.89954A3.87391,3.87391,0,0,1,75.479,92.41653Z"/>
  </g>
</svg>
