<svg xmlns="http://www.w3.org/2000/svg" viewBox="0 0 128 128">
  <defs>
    <style>
      .a {
        fill: #fff;
      }
    </style>
  </defs>
  <g>
    <circle class="a" cx="64" cy="63.99017" r="8.61224"/>
    <path class="a" d="M112.3125,63.97174c0-6.76868-7.93872-12.636-20.29156-16.17834,3.10888-12.4701,1.99633-22.27906-3.86469-25.66224-5.87305-3.38793-14.92023.55616-24.15985,9.48365-9.23853-8.91877-18.2832-12.8559-24.15265-9.48365-4.88824,2.82258-6.68726,9.96528-5.06061,20.111.28772,1.79553.67652,3.65436,1.159,5.56158-12.33209,3.5434-20.25464,9.40589-20.25464,16.168,0,6.76093,7.92279,12.623,20.25507,16.16614-.48267,1.9079-.87165,3.76739-1.15943,5.56341-1.62665,10.14576.17237,17.28846,5.06061,20.10694a9.55233,9.55233,0,0,0,4.86981,1.24719c4.279,0,9.45862-2.35077,15.07715-6.917q2.10315-1.7092,4.20972-3.7569,2.10168,2.04144,4.20886,3.7569c5.62061,4.56622,10.7981,6.917,15.07715,6.917a9.55233,9.55233,0,0,0,4.86981-1.24719c4.89032-2.81848,6.68726-9.96118,5.06262-20.10694-.28784-1.79626-.67682-3.65606-1.1596-5.56421C104.39014,76.59387,112.3125,70.73218,112.3125,63.97174ZM83.29877,25.09937a5.426,5.426,0,0,1,2.757.67077c3.80358,2.1947,4.63079,10.141,1.913,20.98169a98.651,98.651,0,0,0-12.86426-2.01654,98.64394,98.64394,0,0,0-8.17584-10.12842C73.3103,28.4278,79.22943,25.09937,83.29877,25.09937Zm-5.834,46.64477c-1.49286,2.58392-3.05713,5.07251-4.67187,7.44342-2.81348.21051-5.74658.327-8.79291.327-3.04553,0-5.97791-.1164-8.79065-.32679-1.61438-2.37078-3.178-4.85943-4.67-7.4436-1.49323-2.5863-2.868-5.18713-4.11512-7.773,1.24714-2.58557,2.62189-5.186,4.11512-7.77185,1.52179-2.63574,3.08752-5.1167,4.675-7.446,2.81122-.21015,5.742-.32642,8.78571-.32642,3.04474,0,5.97644.11639,8.78857.32666,1.58783,2.32928,3.15393,4.81018,4.67621,7.4458,1.49146,2.58447,2.86481,5.18359,4.1109,7.76782Q79.74,67.77905,77.46478,71.74414ZM83.802,68.90106c1.18231,2.80243,2.20313,5.56342,3.043,8.24433-2.68988.60675-5.58752,1.11657-8.67309,1.50537q1.50072-2.3465,2.92779-4.806Q82.53208,71.36392,83.802,68.90106ZM64.00122,90.35486c-1.90637-2.07129-3.79144-4.34033-5.63135-6.77075,1.84528.08392,3.72119.13153,5.63013.13153,1.90967,0,3.78625-.04767,5.6322-.13166C67.79224,86.01453,65.90723,88.28375,64.00122,90.35486ZM49.82831,78.65094c-3.08527-.38867-5.98273-.8985-8.6723-1.50513.83978-2.68133,1.86071-5.44256,3.04327-8.245q1.28293,2.47567,2.701,4.944Q48.322,76.30658,49.82831,78.65094ZM44.19946,59.04175c-1.1828-2.80292-2.20385-5.56452-3.0437-8.246,2.6897-.60663,5.58728-1.11652,8.67267-1.50519q-1.49248,2.3334-2.92816,4.80822Q45.47772,56.56291,44.19946,59.04175Zm19.801-21.43457c1.86694,2.02319,3.75476,4.27722,5.6308,6.7503-1.84571-.084-3.72193-.13165-5.63129-.13165-1.90863,0-3.78424.04761-5.62927.13153C60.2464,41.88434,62.13379,39.63037,64.00049,37.60718ZM81.09973,54.09875q-1.43151-2.47887-2.92828-4.80816c3.07892.38794,5.97076.89654,8.6557,1.50152-.81848,2.62787-1.82373,5.38666-3.027,8.24732Q82.51743,56.5653,81.09973,54.09875ZM38.93091,41.57758c-1.31079-8.18268-.21332-13.94483,3.01336-15.80744a5.426,5.426,0,0,1,2.757-.67077c4.06873,0,9.9867,3.32739,16.36792,9.50463a98.77555,98.77555,0,0,0-8.17444,10.13129A98.62245,98.62245,0,0,0,40.00818,46.757C39.55963,44.979,39.19843,43.24811,38.93091,41.57758ZM19.88861,63.97174c0-4.38867,6.45837-9.07587,17.19177-12.14221a100.27844,100.27844,0,0,0,4.7041,12.14178,100.27478,100.27478,0,0,0-4.70367,12.14081C26.34711,73.046,19.88861,68.35925,19.88861,63.97174ZM57.14246,96.87683c-6.43085,5.22675-11.96735,7.15088-15.19819,5.29651-3.22668-1.86261-4.32415-7.62677-3.01336-15.80743.26758-1.67121.62878-3.40284,1.07745-5.18134a98.62855,98.62855,0,0,0,12.88056,2.02106,100.26914,100.26914,0,0,0,8.18194,10.16662C59.76147,94.64276,58.44916,95.81519,57.14246,96.87683Zm31.92865-10.515c1.30877,8.18475.20922,13.94891-3.01538,15.81152-3.22059,1.85846-8.76734-.06567-15.19617-5.29651-1.30689-1.06225-2.6192-2.23505-3.92865-3.50555a100.24523,100.24523,0,0,0,8.18066-10.16577A98.62862,98.62862,0,0,0,87.9931,81.184C88.44177,82.96149,88.80322,84.69189,89.07111,86.36182ZM90.921,76.11139a100.22534,100.22534,0,0,0-4.70667-12.14557A98.63647,98.63647,0,0,0,90.897,51.82355c10.7464,3.06628,17.21442,7.75659,17.21442,12.14819C108.11139,68.35889,101.6532,73.04517,90.921,76.11139Z"/>
  </g>
</svg>
