<svg xmlns="http://www.w3.org/2000/svg" viewBox="0 0 128 128"><path d="M111.34756,62.82812l-4.09177-2.53356c-.03134-.368-.06285-.73571-.10334-1.101l3.5106-3.28143a1.37807,1.37807,0,0,0-.45754-2.29711l-4.50305-1.68712c-.10278-.354-.20309-.70873-.31456-1.05895l2.80668-3.90483a1.37788,1.37788,0,0,0-.89668-2.16433l-4.76625-.77776c-.16832-.32314-.33575-.64656-.51187-.96487l2.00134-4.392a1.37784,1.37784,0,0,0-1.30264-1.94858l-4.84166.17164c-.22266-.27761-.44694-.55359-.67621-.82559L98.31176,31.345a1.37793,1.37793,0,0,0-1.657-1.657l-4.71769,1.11121c-.27194-.22927-.54792-.4535-.82553-.67615l.17163-4.84178a1.37783,1.37783,0,0,0-1.94857-1.30263L84.94274,25.9801c-.3182-.17606-.64151-.34337-.96453-.51164l-.77776-4.76658a1.37788,1.37788,0,0,0-2.16434-.89669l-3.90471,2.807c-.35028-.11147-.70509-.21183-1.05912-.31461l-1.68706-4.50282a1.37807,1.37807,0,0,0-2.29711-.45754L68.8069,20.84755c-.36553-.04054-.73335-.072-1.10146-.1034l-2.53378-4.09149a1.378,1.378,0,0,0-2.34332,0L60.29461,20.744c-.36827.03129-.73621.06274-1.10179.10328l-3.28137-3.51014a1.37807,1.37807,0,0,0-2.29711.45754l-1.68645,4.50175c-.35431.10284-.70957.20315-1.06013.31473l-3.90387-2.806a1.37788,1.37788,0,0,0-2.16434.89669l-.77736,4.76417c-.32393.16871-.64824.33637-.96739.513L38.665,23.97866a1.37784,1.37784,0,0,0-1.94857,1.30263l.17152,4.83892c-.2785.22333-.55538.44834-.82822.67834L31.34479,29.688a1.37794,1.37794,0,0,0-1.657,1.657l1.11059,4.71511c-.22994.27284-.4549.54955-.67823.828l-4.83908-.17152a1.40653,1.40653,0,0,0-1.19453.6114,1.37756,1.37756,0,0,0-.10811,1.33718L25.979,43.05547c-.17651.31893-.34416.64307-.51277.96683l-4.76456.77748a1.37788,1.37788,0,0,0-.89668,2.16433l2.80623,3.90421c-.11158.3505-.21189.70554-.31467,1.0598l-4.502,1.68689a1.37807,1.37807,0,0,0-.45754,2.29711l3.51021,3.281c-.04049.36553-.072.73346-.10334,1.10162l-4.09138,2.53334a1.37826,1.37826,0,0,0-.00045,2.34331l4.09194,2.53418c.03134.3681.06285.736.10339,1.10151L17.337,72.08833a1.37762,1.37762,0,0,0,.45754,2.29666l4.50283,1.68757c.10272.35386.203.70851.31444,1.05861L19.805,81.03544a1.37816,1.37816,0,0,0,.89668,2.16478l4.7663.77776c.16833.32314.33564.6465.51182.96481l-2.00134,4.392a1.37861,1.37861,0,0,0,.10811,1.33763,1.35543,1.35543,0,0,0,1.19453.611l4.84172-.17164c.22265.27761.44694.55365.67621.82559l-1.11121,4.71808a1.37794,1.37794,0,0,0,1.657,1.657l4.71764-1.11166c.27183.22921.5477.45338.82519.676l-.17124,4.84239a1.37825,1.37825,0,0,0,1.94857,1.30263l4.392-2.00173c.31831.17612.64184.34355.96492.51187l.7777,4.76619a1.37782,1.37782,0,0,0,2.16434.89714l3.90482-2.80708c.35017.11147.705.21178,1.0589.31456l1.68673,4.503a1.37856,1.37856,0,0,0,2.29711.45754l3.28177-3.51054c.36541.04049.73318.072,1.10123.10334l2.53389,4.09171a1.37851,1.37851,0,0,0,2.34332,0l2.53395-4.09171c.368-.03134.7357-.06285,1.10112-.10334l3.28138,3.51054a1.37856,1.37856,0,0,0,2.29711-.45754l1.68711-4.50305c.35392-.10272.70868-.20308,1.05884-.31455l3.90494,2.80713a1.37782,1.37782,0,0,0,2.16434-.89714l.77776-4.7663c.323-.16832.64644-.33569.9647-.51181l4.39169,2.00178a1.37824,1.37824,0,0,0,1.94857-1.30263l-.17124-4.84228c.27755-.2226.55342-.44683.82536-.67605l4.71747,1.11161a1.37793,1.37793,0,0,0,1.657-1.657l-1.11115-4.71791c.22933-.27206.45367-.54809.67638-.82576l4.84149.17164a1.33069,1.33069,0,0,0,1.19454-.611,1.37863,1.37863,0,0,0,.1081-1.33763L102.01984,84.943c.17617-.31837.34355-.64184.51193-.965l4.76613-.77771a1.37816,1.37816,0,0,0,.89668-2.16478l-2.80668-3.9041c.11147-.35016.21178-.70492.3145-1.05884l4.50311-1.68751a1.37762,1.37762,0,0,0,.45754-2.29666l-3.5106-3.28143c.04049-.36542.072-.73307.10334-1.10107l4.09222-2.5344a1.37826,1.37826,0,0,0-.00045-2.34331ZM83.0254,87.031a2.60986,2.60986,0,0,0-3.0959,2.00268l-1.43311,6.68785a35.15725,35.15725,0,0,1-29.31457-.13777l-1.43311-6.6879A2.60061,2.60061,0,0,0,44.662,86.89322L38.755,88.161a35.168,35.168,0,0,1-3.05-3.60115H64.43163c.32157,0,.542-.05512.542-.35829V74.04111c0-.294-.22047-.35829-.542-.35829H56.02589L56.035,67.243h9.0856c.82682,0,4.43717.2388,5.5855,4.85051.35829,1.41473,1.15752,6.02644,1.69951,7.50548.542,1.65364,2.73765,4.96081,5.08024,4.96081h14.8272a35.15774,35.15774,0,0,1-3.252,3.7665Zm4.83218,6.46738a2.857,2.857,0,1,1-2.85827-2.85821q.042,0,.08389.00117A2.857,2.857,0,0,1,87.85758,93.49842ZM42.69605,96.22688a2.85765,2.85765,0,0,1-.00123-5.7153q.042,0,.08388.00118a2.85767,2.85767,0,0,1-.08265,5.71412ZM29.78759,50.28328c.028-.00006.056.00039.08389.00118a2.85761,2.85761,0,1,1-.08389-.00118Zm-.74293,9.61957,6.15506-2.7376a2.60146,2.60146,0,0,0,1.32288-3.4358l-1.26776-2.857H40.234V73.32458H30.18385A35.15736,35.15736,0,0,1,29.04466,59.90285Zm26.98123-2.168.00914-6.62353h11.86c.61549,0,4.32693.70733,4.32693,3.49091,0,2.30586-2.8479,3.13262-5.19048,3.13262ZM94.9405,66.89393v1.65358c0,3.89513-2.19562,4.74948-4.12485,4.96081-1.83727.21128-3.86754-.7717-4.12474-1.89244-1.08407-6.09075-2.88462-7.3861-5.73251-9.63684C84.49529,59.7375,88.17,56.42113,88.17,51.99316c0-4.78621-3.27964-7.79945-5.512-9.27849a15.67684,15.67684,0,0,0-7.55145-2.48041H37.80875A35.15735,35.15735,0,0,1,57.47734,29.13678l4.40043,4.61171a2.59008,2.59008,0,0,0,3.67466.08271l4.924-4.69442a35.15715,35.15715,0,0,1,24.069,17.14231L91.174,53.88561a2.62754,2.62754,0,0,0,1.32287,3.445L98.98259,60.206a35.15746,35.15746,0,0,1,.07351,6.1H95.44576C95.08747,66.306,94.9405,66.54483,94.9405,66.89393ZM60.99584,27.29031A2.85705,2.85705,0,0,1,63.85169,24.432q.042,0,.08388.00118a2.85765,2.85765,0,1,1-2.93973,2.85709ZM97.90777,56.12715a2.85765,2.85765,0,0,1-.00123-5.7153q.042,0,.08388.00123a2.85764,2.85764,0,0,1-.08265,5.71407Z" style="fill:#fff"/></svg>