<svg xmlns="http://www.w3.org/2000/svg" viewBox="0 0 128 128">
  <defs>
    <style>
      .a {
        fill: #fff;
      }
    </style>
  </defs>
  <g>
    <path class="a" d="M.00464,104.48911V22.34564a.94105.94105,0,0,1,.84387-1.02911q.03-.003.06022-.004,1.93777-.12723,5.68288-.19371,3.74453-.06375,8.78284-.12926,5.03711-.06345,10.71981-.06463,15.49863,0,25.70217,5.29548A35.77045,35.77045,0,0,1,67.10157,40.75053a43.22888,43.22888,0,0,1,5.10157,21.24613A47.39281,47.39281,0,0,1,69.5556,78.46418a38.42268,38.42268,0,0,1-7.23286,12.33443,43.00716,43.00716,0,0,1-10.39706,8.58892,45.732,45.732,0,0,1-12.399,5.03715,54.58521,54.58521,0,0,1-13.045,1.61441H16.85974q-5.10412,0-9.493-.06463-4.3926-.06669-6.58693-.1937Q.0048,105.78076.00464,104.48911Zm17.82379-67.678V90.282q1.41955,0,2.58291.06463c.77518.04446,1.56993.08677,2.3894.12907q1.22623.06669,2.77681.06463a34.59238,34.59238,0,0,0,11.495-1.80811,23.50989,23.50989,0,0,0,8.84707-5.42457,24.36582,24.36582,0,0,0,5.68326-8.9119A33.80131,33.80131,0,0,0,53.6045,62.38424a30.30251,30.30251,0,0,0-1.93735-11.3013,21.3956,21.3956,0,0,0-5.61823-8.13672,23.00177,23.00177,0,0,0-8.78244-4.84344A38.305,38.305,0,0,0,26.09421,36.553q-2.58527,0-4.32679.06443-1.74329.06667-3.939.1937Z"/>
    <path class="a" d="M122.95917,58.38043a30.19806,30.19806,0,0,0-7.68488-2.71238,40.81278,40.81278,0,0,0-8.97633-1.03331,16.70366,16.70366,0,0,0-4.84345.58129,4.35177,4.35177,0,0,0-2.51867,1.61442,4.06722,4.06722,0,0,0-.64553,2.19571,3.42976,3.42976,0,0,0,.7748,2.06644,8.79086,8.79086,0,0,0,2.71217,2.13107,54.11071,54.11071,0,0,0,5.68288,2.64774A56.316,56.316,0,0,1,119.79459,71.748a18.75769,18.75769,0,0,1,6.32879,6.65156,17.735,17.735,0,0,1,1.87275,8.26617,18.5656,18.5656,0,0,1-3.09957,10.65538,20.38884,20.38884,0,0,1-8.97673,7.168,36.14515,36.14515,0,0,1-14.52994,2.5833,52.54748,52.54748,0,0,1-10.91371-1.03332A31.21878,31.21878,0,0,1,82.662,103.456a1.67266,1.67266,0,0,1-.90409-1.55V87.95716a.75865.75865,0,0,1,.32317-.71034.62652.62652,0,0,1,.71016.06463,32.19676,32.19676,0,0,0,9.55763,3.93919,41.0097,41.0097,0,0,0,9.42836,1.227q4.5195,0,6.65156-1.16241a3.65106,3.65106,0,0,0,2.13127-3.35807,4.27265,4.27265,0,0,0-1.93734-3.22884q-1.93717-1.55-7.87878-3.74568a47.47805,47.47805,0,0,1-11.43037-5.81194,19.71174,19.71174,0,0,1-6.07026-6.78082,17.81058,17.81058,0,0,1-1.87275-8.20135,18.51541,18.51541,0,0,1,2.71217-9.68672,19.71069,19.71069,0,0,1,8.39544-7.36192q5.68169-2.83938,14.20719-2.84144a62.89236,62.89236,0,0,1,9.945.71036,24.26307,24.26307,0,0,1,6.71619,1.87274,1.17788,1.17788,0,0,1,.77479.71036,3.56805,3.56805,0,0,1,.12927.96869v13.0448a.8682.8682,0,0,1-.3874.775A.84685.84685,0,0,1,122.95917,58.38043Z"/>
  </g>
</svg>
