<svg xmlns="http://www.w3.org/2000/svg" viewBox="0 0 128 128">
  <defs>
    <style>
      .a {
        fill: #fff;
      }
    </style>
  </defs>
  <path class="a" d="M115.75043,58.4761c-.92271-1.844-2.02795-3.59683-3.05286-5.38961-5.93306-10.378-11.83343-20.77492-17.81825-31.123a10.91589,10.91589,0,0,0-9.65022-5.88459q-21.22866-.16631-42.45938-.00791a10.561,10.561,0,0,0-9.35154,5.40114C26.34283,33.5745,19.41879,45.76581,12.502,57.96a11.81476,11.81476,0,0,0,.11756,12.32055q10.12917,17.78383,20.334,35.52459A11.58485,11.58485,0,0,0,43.593,111.98146q10.14534.01586,20.29068.00268v-.00768c7.07668,0,14.15423.06752,21.22967-.02614a10.6139,10.6139,0,0,0,9.386-5.33928q10.76811-18.38958,21.18478-36.9842A11.3994,11.3994,0,0,0,115.75043,58.4761ZM59.30518,36.28926c.00427-3.00067,1.73543-4.79455,4.54492-4.77511,2.69032.01862,4.42615,1.83309,4.43995,4.70947.02077,4.32011.00541,8.64039.00541,12.96061.00023,4.195.01211,8.39-.0038,12.58492-.011,2.88934-1.91025,4.9922-4.4771,5.007-2.5695.01476-4.5064-2.08371-4.50993-4.9413Q59.289,49.06206,59.30518,36.28926ZM69.45811,91.433c-1.88352.394-3.83261.47476-5.7513.70081A29.90938,29.90938,0,0,1,34.4827,65.94613C33.236,55.172,36.83194,46.28256,44.90469,39.19336a7.66049,7.66049,0,0,1,4.13165-1.76078,3.30335,3.30335,0,0,1,3.31812,2.593,4.45638,4.45638,0,0,1-1.19475,4.63292c-2.124,2.178-4.45307,4.31648-5.97175,6.89735C37.607,64.439,45.80007,81.06879,60.57187,83.46525,72.09126,85.334,83.37112,76.827,84.903,65.33459c1.09236-8.19483-1.67077-14.84839-7.86825-20.16232-1.39663-1.19754-2.56144-2.47262-2.18858-4.4564A4.05932,4.05932,0,0,1,81.49525,38.242,28.78167,28.78167,0,0,1,92.27084,54.08648,29.84036,29.84036,0,0,1,69.45811,91.433Z"/>
</svg>
