<svg xmlns="http://www.w3.org/2000/svg" viewBox="0 0 128 128">
  <defs>
    <style>
      .a {
        fill: #fff;
      }
    </style>
  </defs>
  <g>
    <path class="a" d="M98.55358,55.44158c.02693-1.13313-.88743-.76992-1.45906-.77291-4.8265-.02519-9.6532-.01421-14.47986-.01429-2.23393-.00006-2.11586-.011-2.31974-2.24384-.13523-1.481.3651-1.74789,1.70968-1.72826,4.93655.072,9.87619-.0374,14.81152.0679,1.52846.03261,1.84459-.45651,1.80807-1.88016-.09818-3.82579-.03351-7.65572-.03347-11.484,0-3.93926-.05454-7.87975.034-11.817.02582-1.14867-.44173-1.53667-1.41624-1.76862Q81.13715,19.97531,65.075,16.11175a5.12955,5.12955,0,0,0-2.46132.09271c-10.49467,2.52-20.986,5.05432-31.4911,7.53A1.89228,1.89228,0,0,0,29.37236,25.969q.11481,11.40048.00272,22.80259c-.01456,1.5123.36311,2.00808,1.93585,1.97642,4.99106-.10052,9.98581-.00275,14.9782-.06245,1.17868-.01409,1.626.3505,1.45,1.50623a2.43575,2.43575,0,0,0,.00939.99383c.353,1.25372-.20815,1.49854-1.34962,1.48847-5.1591-.04545-10.31914.00812-15.47816-.04185-1.115-.0108-1.56254.24677-1.5383,1.46013.07435,3.71587-.0501,7.4363.05076,11.15094A38.32226,38.32226,0,0,0,34.81205,86.0482c6.68149,11.254,16.51929,19.09191,27.68,25.49778a2.87722,2.87722,0,0,0,3.20576-.07188A80.01577,80.01577,0,0,0,88.40172,93.01484c4.87238-5.90818,8.41087-12.49943,9.679-20.13327C99.04107,67.101,98.41547,61.2562,98.55358,55.44158ZM64.12429,65.24191A12.57458,12.57458,0,1,1,76.60944,52.677,12.71293,12.71293,0,0,1,64.12429,65.24191Z"/>
    <path class="a" d="M64.97423,46.92439a3.19728,3.19728,0,0,0-3.19966,5.30167,8.122,8.122,0,0,1,2.2452,6.62625c-.06544.50694-.42794,1.00471.26013,1.17309.67668.16559,1.01685-.37956,1.05549-.97834.06056-.93915.01757-1.88461.03075-2.82722.02253-1.61457-.36405-3.31925,1.31863-4.49513.47691-.33324.55662-1.06157.58533-1.82A3.0959,3.0959,0,0,0,64.97423,46.92439Zm-.9678,3.13068a1.04835,1.04835,0,0,1-1.12956-1.15849A1.078,1.078,0,0,1,64.15073,47.718a1.17077,1.17077,0,1,1-.1443,2.33707Z"/>
  </g>
</svg>
