<svg xmlns="http://www.w3.org/2000/svg" viewBox="0 0 128 128">
  <defs>
    <style>
      .a {
        fill: #fff;
      }
    </style>
  </defs>
  <path class="a" d="M103.58413,21.2685a44.40218,44.40218,0,0,1-5.1329,9.1012,48.19286,48.19286,0,1,0-67.305,68.94914l1.0559.93568a4.12338,4.12338,0,1,1,.00486.00393l.71863.63656a48.17422,48.17422,0,0,0,79.09146-33.4176C113.3403,55.25237,109.72936,39.72935,103.58413,21.2685Zm-.20658,63.95421C91.49089,101.06009,66.09934,95.71425,49.81992,96.48318c0,0-2.88184.16031-5.78461.63815,0,0,1.09777-.46822,2.49746-.95083,11.43368-3.954,16.8371-4.74843,23.78453-8.317,13.0536-6.68674,26.045-21.25211,28.68842-36.38263-4.96875,14.55229-20.0803,27.077-33.83982,32.163-9.4178,3.47531-26.44932,6.85742-26.45175,6.85892.008.01206-.67882-.35652-.68835-.36456-11.58268-5.63523-11.91676-30.7215,9.11961-38.808,9.22337-3.54794,18.04554-1.59926,28.01614-3.9725,10.63428-2.52841,22.95074-10.49949,27.95689-20.92083C108.73068,43.07314,115.47247,69.1165,103.37755,85.22271Z"/>
</svg>
