<svg xmlns="http://www.w3.org/2000/svg" viewBox="0 0 128 128">
  <defs>
    <style>
      .a {
        fill: #fff;
      }
    </style>
  </defs>
  <path class="a" d="M113.457,42.92784a2.186,2.186,0,0,0-1.51728-1.57492L88.48452,34.6a1.94723,1.94723,0,0,0-.72822-.20961L41.51121,21.07615a1.96065,1.96065,0,0,0-.7968-.22939l-23.445-6.74995a2.18553,2.18553,0,0,0-2.72663,2.625L26.34332,64.49418c.00334.01468.00427.02949.00787.04413.00354.01434.00948.02762.01334.04183l11.794,47.74589a2.186,2.186,0,0,0,3.63764,1.05137L112.8507,45.029A2.18625,2.18625,0,0,0,113.457,42.92784ZM76.99816,73.44971l-4.134-16.75278,16.59711,4.76422ZM59.39905,90.37864l-4.03177-16.3414L71.542,78.698ZM31.50544,67.1614l16.22019,4.67386L35.55722,83.56455ZM25.55419,43.06874,42.133,47.828,29.689,59.80761ZM53.45734,66.29148,49.40983,49.88717,65.642,54.54682Zm-4.145,1.451L32.71759,62.96072,45.17366,50.96953Zm19.30825-9.99412L72.75345,74.497l-16.55881-4.7714Zm-17.96829-12.053L62.7681,34.03175,66.78933,50.3277ZM47.59515,42.5695,43.56031,26.21562l16.18284,4.65915Zm-4.24164,1.06041L27.12184,38.97026,39.30653,27.22587Zm7.67927,31.09015,4.047,16.404L38.84809,86.465Zm23.09439-22.209L86.31186,40.76613l4.04751,16.40431ZM71.06192,49.3932,67.00841,32.96651l16.24341,4.67663ZM36.24061,24.10825l-12.41417,11.966-4.1325-16.7299Zm5.25405,83.493-4.20815-17.0361,16.881,4.84581ZM94.68213,56.43909,90.56378,39.74828l16.52413,4.75742Z"/>
</svg>
