<svg xmlns="http://www.w3.org/2000/svg" viewBox="0 0 128 128">
  <defs>
    <style>
      .a {
        fill: #fff;
        fill-rule: evenodd;
      }
    </style>
  </defs>
  <path class="a" d="M111.81736,75.14593h0a48.26081,48.26081,0,0,1-26.83061,32.65355l-7.78352-8.754L64.06732,112.25A48.47546,48.47546,0,0,1,25.72808,92.58533a18.88509,18.88509,0,0,0,4.29368.80874c2.15174.03921,4.47994-.74992,4.47994-4.3623V53.39814A5.88175,5.88175,0,0,0,27.125,47.51639C21.04228,48.9182,16.18493,64.09313,16.18493,64.09313A48.25,48.25,0,0,1,32.88421,27.11649,48.94121,48.94121,0,0,1,57.52386,15.75c-6.64148,3.78393-10.37149,9.95487-10.37149,15.13082,0,8.33248,5.0191,7.32278,6.50424,6.09742V85.07139a7.64683,7.64683,0,0,0,.98029,1.691,7.10221,7.10221,0,0,0,5.80824,2.94088c5.024,0,11.54295-5.73471,11.54295-5.73471V45.04115c0-3.96039-2.985-8.74421-5.97489-10.3862,0,0,5.53375-.9803,9.80293,2.289h0a36.57494,36.57494,0,0,1,2.55366-2.80854A48.30277,48.30277,0,0,1,105.5386,20.18093h0S91.32435,31.35136,91.32435,46.34c0,11.14593.28919,38.32944.28919,38.32944C96.88751,89.76209,104.72985,82.405,111.81736,75.14593Z"/>
</svg>
