<svg xmlns="http://www.w3.org/2000/svg" viewBox="0 0 128 128">
  <defs>
    <style>
      .a {
        fill: #fff;
      }
    </style>
  </defs>
  <path class="a" d="M64.00209,16a48,48,0,1,0,47.99582,47.9986A48.05335,48.05335,0,0,0,64.00209,16ZM20.84536,63.9986A42.98768,42.98768,0,0,1,24.58108,46.436L45.1695,102.83854A43.16438,43.16438,0,0,1,20.84536,63.9986Zm43.15673,43.15953a43.15482,43.15482,0,0,1-12.19287-1.76l12.9504-37.62458,13.264,36.342a3.73149,3.73149,0,0,0,.30942.59508A43.09818,43.09818,0,0,1,64.00209,107.15813Zm5.948-63.39091c2.59457-.13581,4.93848-.41025,4.93848-.41025a1.78311,1.78311,0,0,0-.27442-3.55509s-6.9898.54747-11.504.54747c-4.23839,0-11.36539-.54747-11.36539-.54747-2.32572-.13722-2.59735,3.41787-.273,3.55509,0,0,2.20249.27444,4.52543.41025l6.72511,18.42234L53.27664,90.51405l-15.713-46.751c2.60017-.13582,4.93848-.41025,4.93848-.41025a1.78325,1.78325,0,0,0-.27722-3.55509s-6.987.54887-11.50119.54887c-.81069,0-1.76564-.02241-2.778-.05181a43.14552,43.14552,0,0,1,65.2-8.12392c-.182-.0098-.36682-.0336-.55729-.0336a7.47467,7.47467,0,0,0-7.25018,7.66046c0,3.55648,2.05269,6.5655,4.24118,10.12058A22.74514,22.74514,0,0,1,93.1345,61.82131c0,3.69371-1.41839,7.98249-3.28346,13.95571L85.54686,90.1598Zm31.9202-.47327a43.16172,43.16172,0,0,1-16.17364,58.00858L98.8795,63.18928a40.66777,40.66777,0,0,0,3.28205-15.45812A32.76562,32.76562,0,0,0,101.87033,43.294Z"/>
</svg>
