<svg xmlns="http://www.w3.org/2000/svg" viewBox="0 0 128 128">
  <defs>
    <style>
      .a {
        fill: #fff;
      }
    </style>
  </defs>
  <g>
    <path class="a" d="M77.27229,32.64946c2.32379-.30427,4.28826-.43015,5.92985-1.23966,2.10081-1.03389,1.372-4.44321.5007-6.53414-1.529-3.67692-5.17454-9.15318-10.24772-8.86471a7.102,7.102,0,0,0-2.76581.8747,11.324,11.324,0,0,0-5.31989,7.46361,6.33557,6.33557,0,0,0,.8205,4.34018C68.197,32.04628,71.72432,33.37061,77.27229,32.64946Z"/>
    <path class="a" d="M117.90993,106.9203a65.31379,65.31379,0,0,0-6.75064-11.70841C103.81052,84.85152,92.935,77.1909,81.66388,72.83743,76.87123,70.987,69.31332,68.887,62.7326,69.3601c0-.01441,5.96259-7.30979,8.36964-9.82946,2.39547-2.50923,5.00548-4.9939,5.00548-4.9939s1.68986.842,2.33875,1.11546a16.3221,16.3221,0,0,0,7.5034,1.52643c5.87256-.47109,10.6477-4.98176,11.64406-5.91546,1.11379-1.046,5.84937-4.97159,5.47627-8.68039-.27519-2.75958-2.24959-4.17565-5.50225-4.75456a11.249,11.249,0,0,0-3.3718.05363c-2.74714.59837-4.82145,1.98058-7.05012,3.35261-.92042.62039-3.33507,2.2885-3.33507,2.2885s-3.505-1.39264-8.28666-3.30065a77.187,77.187,0,0,0-8.64117-2.95577,35.792,35.792,0,0,0-8.97338-1.25546A31.49266,31.49266,0,0,0,45.69047,38.1452c-8.01485,3.19087-13.72258,7.85228-18.9657,14.10672A42.68125,42.68125,0,0,0,22.01228,58.742c-.33447.59131-1.31841,1.87782-.68644,2.73588.47616.64607,2.01613.23058,2.8897.01071a46.04558,46.04558,0,0,0,7.20111-2.67942c1.67348-.73385,3.82228-1.90012,4.31848-3.21769.28253-.75135-.00537-2.27749.18063-3.32436a9.018,9.018,0,0,1,1.51852-3.73675c2.09121-2.56511,7.30133-5.53611,11.25879-6.53584,3.21571-.814,6.931.57043,9.18,1.54986a62.99032,62.99032,0,0,1,9.71853,5.83894c1.42255.95008,4.79237,3.10478,4.79237,3.10478A106.4987,106.4987,0,0,0,56.05111,70.30734a68.21063,68.21063,0,0,0-12.99322,4.59C38.92233,76.92758,30.606,81.10577,25.13823,85.25685a77.95163,77.95163,0,0,0-8.436,7.29c-1.56932,1.61222-4.97272,5.41192-6.404,8.34169-1.41831,2.90579-1.39235,5.02072-.71833,5.7636.676.744,6.61657,1.45333,15.93034-3.03648a80.96943,80.96943,0,0,0,13.4979-8.43738c2.28653-1.73274,10.19326-9.54014,12.31836-11.74283.77027-.91422,1.75984-2.09093,2.52954-3.00515a80.50027,80.50027,0,0,1,17.41385.4389c9.98951,1.26448,14.12028,2.00428,20.01286,4.32072,2.96848,1.16345,6.124,2.59673,7.96434,4.89172a5.31963,5.31963,0,0,1,1.51852,4.42093c-.24811,1.2151-.967,2.76466-.70873,3.9504.40673,1.85187,2.74066,3.94873,4.25157,5.16269,3.30489,2.65036,7.878,6.14522,10.02421,7.18673,1.18007.575,3.275,1.86033,4.18438.77732C119.394,110.53258,118.40921,108.07867,117.90993,106.9203ZM92.97459,42.30335a15.75906,15.75906,0,0,1,4.09742-.86483c1.36358-.12729,3.65606.34887,3.61485,1.23656-.035.78748-.76493,1.45049-1.57472,1.94218-3.32859,2.01529-7.56521,1.37965-11.24862.2608A32.50335,32.50335,0,0,1,92.97459,42.30335ZM46.26429,82.33271c-.49309.54871-2.23741,2.3636-3.59985,3.83526a77.19731,77.19731,0,0,1-18.03116,14.07989A23.65532,23.65532,0,0,1,18.31,102.75681c-1.13861.24951-2.46661.08552-2.914-.65849-.52528-.87471-.00255-2.3303.25515-2.958a17.43383,17.43383,0,0,1,3.81748-5.81806c4.94168-4.93548,15.93-9.20032,20.12095-10.28728,1.53149-.39824,3.81661-1.05166,4.80591-1.25489.991-.20152,2.83579-.53909,2.83579-.53909S46.75824,81.78006,46.26429,82.33271Z"/>
  </g>
</svg>
